<?xml version="1.0" encoding="utf-8"?>
<!-- Generator: Adobe Illustrator 26.0.3, SVG Export Plug-In . SVG Version: 6.00 Build 0)  -->
<svg version="1.1" id="Layer_1" xmlns="http://www.w3.org/2000/svg" xmlns:xlink="http://www.w3.org/1999/xlink" x="0px" y="0px"
	 viewBox="0 0 2000 399.5" style="enable-background:new 0 0 2000 399.5;" xml:space="preserve">
<style type="text/css">
	.st0{fill:#98B23C;stroke:#6C8438;stroke-width:5.0013;stroke-miterlimit:10;}
	.st1{fill:none;stroke:#6C8328;stroke-width:5.0013;stroke-miterlimit:10;}
	.st2{fill:#6D8538;stroke:#6C8438;stroke-width:5.0013;stroke-miterlimit:10;}
	.st3{fill:#6C8438;}
	.st4{fill:#EEDE6B;stroke:#D09637;stroke-width:5.0013;stroke-miterlimit:10;}
	.st5{fill:#D09637;stroke:#D09637;stroke-width:5.0013;stroke-miterlimit:10;}
	.st6{fill:#D09637;}
	.st7{fill:#98B23C;}
</style>
<g>
	<g id="Sad_Pop">
		<ellipse id="Head" class="st0" cx="1927.3" cy="148.2" rx="64.7" ry="65.3"/>
		<line id="Stick" class="st1" x1="1881.7" y1="193" x2="1712.4" y2="363.4"/>
		<g id="Face">
			
				<ellipse id="left_eye" transform="matrix(0.6241 -0.7813 0.7813 0.6241 622.6647 1580.8574)" class="st2" cx="1954.3" cy="143.3" rx="21.8" ry="4.3"/>
			<g>
				
					<ellipse id="right_eye" transform="matrix(0.6241 -0.7813 0.7813 0.6241 631.5897 1547.1735)" class="st2" cx="1923.8" cy="117.2" rx="21.8" ry="4.3"/>
				<g id="mouth">
					<path class="st3" d="M1920.7,208c5.6-7,8.7-15.7,7.9-24.6c-1.7-21.2-24.5-40.7-45.6-32.1c-4.1,1.5-7.9,4-11.6,6.8
						c2.9-3.6,6.4-6.7,10.6-9c8.5-4.8,19.2-4.7,28-0.5C1932.5,159.1,1941.6,191.1,1920.7,208L1920.7,208z"/>
				</g>
			</g>
		</g>
	</g>
	<g id="Happy_Pop">
		<line id="stick" class="st4" x1="1788.7" y1="145.5" x2="1763.3" y2="382.1"/>
		<ellipse id="head" class="st4" cx="1796.3" cy="81.7" rx="64.7" ry="65.3"/>
		<g id="Face_00000031902108841624924920000012599401845857218435_">
			
				<ellipse id="right_eye_00000142170539963848843900000012929203304991910562_" class="st5" cx="1774.3" cy="59.8" rx="4.3" ry="21.9"/>
			
				<ellipse id="left_eye_00000072253569717324630800000006829240024053101210_" class="st5" cx="1814.3" cy="60.8" rx="4.3" ry="21.9"/>
			<g id="mouth_00000107578615143095341370000001585113107148819878_">
				<path class="st6" d="M1760.1,95.5c1,8.7,4.8,17,11.5,22.6c12.8,10.7,33.6,11.6,46.3,0.4c6.6-5.8,9.7-14.3,10.7-23
					c1.1,9.1-1.4,19.1-8,25.8C1799.3,143.1,1756.4,127.7,1760.1,95.5L1760.1,95.5z"/>
			</g>
		</g>
	</g>
</g>
<g>
	<path class="st7" d="M91.9,264.6c-17.3,0-31.5-2.3-42.7-7c-11.2-4.7-19.5-10.9-24.9-18.7c-5.4-7.8-8.1-16.1-8.1-25
		c0-8.5,2.4-17.1,7.2-25.6c4.8-8.5,11.8-16.3,20.9-23.2c9.1-6.9,20.2-12.4,33.4-16.2c3.3-1,7.3-1.9,12.1-2.8
		c4.7-0.8,9.1-1.3,13.1-1.5c-4.6-1.7-9.4-4-14.2-7c-4.8-3-8.8-6.6-11.8-10.8c-3.1-4.2-4.4-8.7-4.1-13.6c0.7-7.7,3.4-14.8,8.1-21.2
		c4.7-6.4,10.8-12.3,18.3-17.5c7.5-5.2,15.7-9.5,24.6-13.1c9-3.5,18-6.2,27.3-8.2c9.2-1.9,17.9-2.9,26-2.9c1.8,0,3.6,0,5.2,0.1
		c1.7,0.1,3.2,0.2,4.7,0.4c13.4,1.5,23.2,4.7,29.4,9.7c6.1,4.9,9.2,10.5,9.2,16.7c0,7.2-3.9,14.3-11.6,21.4
		c-7.7,7-18.4,12.1-32,15.1c-2.7,0.5-4.7,0.8-6.2,0.8c-2.5,0-3.7-0.5-3.7-1.5c0-0.5,0.8-1.3,2.4-2.3c1.6-1,3.8-1.6,6.6-1.8
		c5-0.5,9.7-2.5,14.3-6c4.6-3.5,8.3-7.7,11.2-12.7c2.9-4.9,4.4-9.7,4.4-14.2c0-4.7-1.9-8.8-5.6-12.4c-3.7-3.6-10.2-5.8-19.3-6.7
		c-1.3-0.2-2.7-0.3-4.1-0.4c-1.4-0.1-2.9-0.1-4.4-0.1c-10,0-20,1.4-30.1,4.3c-10.1,2.9-19.4,6.9-27.9,12.1
		c-8.5,5.2-15.3,11.1-20.4,17.8c-5.1,6.7-7.7,14-7.7,21.9c0,5.5,1.4,10,4.1,13.3c2.7,3.4,6.2,5.9,10.5,7.8c4.2,1.8,8.7,3.4,13.3,4.5
		c4.6,1.2,9,2.3,13.1,3.3c4.1,1,7.3,2.3,9.6,3.8c2.3,1.5,3.1,3.7,2.5,6.5c-0.7,1.8-2.2,3.1-4.5,3.6c-2.3,0.6-5.4,0.9-9.2,0.9
		c-2.7,0-5.6,0-8.8-0.1c-3.2-0.1-6.7-0.1-10.3-0.1c-5.1,0-10.5,0.2-16.1,0.6c-5.6,0.4-11.2,1.5-17,3.1c-8.8,2.5-16.6,6.7-23.3,12.7
		c-6.7,5.9-11.9,12.7-15.7,20.4c-3.7,7.6-5.6,15.4-5.6,23.2c0,7.5,2,14.6,6,21.1c4,6.5,10.3,11.8,18.9,15.8c8.6,4,20,6,34.1,6
		c12.9,0,25.5-1.7,37.6-5c12.1-3.3,23.3-7.7,33.6-12.9c10.3-5.3,19.1-10.8,26.4-16.5c6-4.9,10.8-9.8,14.6-14.8
		c3.7-5,5.6-9.4,5.6-13.1c0-4-2.2-6.5-6.7-7.5c-3.7-1-5.5-2-5.5-3s1.3-1.5,4-1.5c1,0,2.1,0.1,3.2,0.3c1.2,0.2,2.3,0.6,3.5,1.3
		c7.5,3.7,11.2,8.9,11.2,15.6c0,9.5-6.7,19.6-20.2,30.1c-8.1,6.5-18,12.3-29.7,17.2c-11.7,4.9-24.3,8.8-37.8,11.6
		C119.1,263.2,105.5,264.6,91.9,264.6z"/>
	<path class="st7" d="M282.3,251.3c-1.8,0.2-3.9-0.3-6.2-1.3c-2.3-1-4.4-2.8-6.1-5.5c-1.7-2.7-2.6-6.4-2.6-11.3
		c0-4,0.7-8.9,2.2-14.6c-2,3.2-4.6,7.1-7.7,11.7c-3.2,4.6-6.6,8.7-10.2,12.2c-3.2,3-6.1,5.2-9,6.5c-2.8,1.3-5.4,2-7.7,2
		c-4.3,0-7.8-2-10.5-5.9c-2.7-3.9-4-9.1-4-15.5c0-6.7,1.7-14.3,5-22.9c3.3-8.5,8.7-17.4,16.2-26.6c4.8-5.9,10.7-10.6,17.5-14.2
		c6.9-3.6,13.6-5.4,20.3-5.4c3.8,0,7.5,0.6,11,1.9c3.5,1.3,6.6,3.3,9.2,6.2c1.2,1.2,1.7,2.5,1.7,4c0,1-0.4,1.8-1.2,2.5
		c-0.8,0.7-1.9,0.8-3.2,0.5c-1.8-5.9-5.7-8.8-11.7-8.8c-2.8,0-6.1,0.9-9.7,2.8c-5.6,3-11.5,8-17.5,14.8c-6.1,6.9-11.3,14-15.8,21.4
		c-0.7,1-1.7,2.9-3.1,5.8c-1.4,2.9-2.8,6-4.1,9.5c-1.3,3.5-2.2,7-2.7,10.3c-0.2,1-0.2,1.7-0.2,2.1c0,0.4,0,1,0,1.9
		c0,5.5,2.1,8.3,6.2,8.3c5,0,10.6-3.7,16.9-11.1c4.3-5.4,8.2-11,11.7-16.8c3.5-5.9,7.1-12.1,10.7-18.8c2.5-4.5,4.8-8.3,7-11.3
		c2.2-3,5.2-4.5,9.2-4.5c1.8,0,3.6,0.3,5.5,0.8c1.8,0.5,3.7,0.6,5.7,0.3c-1.3,1.3-3.1,3.9-5.4,7.5c-2.2,3.7-4.6,7.9-7.1,12.6
		c-2.5,4.7-4.7,9.5-6.7,14.3c-2,4.9-3.4,9-4.2,12.6c-0.2,1-0.4,2.4-0.6,4.3c-0.2,1.8-0.4,3.2-0.4,4c0,4.7,1.3,7,4,7
		c2.7,0,5.5-1.6,8.6-4.8c3.1-3.2,6.1-7.1,9.1-11.8c3-4.7,5.7-9.4,8.2-14.2s4.5-8.7,6-11.7c0.7-1.7,1.7-2.5,3-2.5
		c0.8,0,1.2,0.6,1.2,1.8c0,0.5-0.2,1.4-0.7,2.8c-2,4.2-4.4,8.9-7.2,14.2c-2.8,5.3-5.9,10.4-9.2,15.3c-3.3,4.9-6.8,9-10.3,12.3
		C289.6,249.2,286,251,282.3,251.3z"/>
	<path class="st7" d="M328.3,250.5c-4.6,0-8.8-1.6-12.4-4.9c-3.7-3.3-5.5-8.4-5.5-15.5c0-5.5,1-12.4,3.1-20.5
		c2.1-8.1,4.6-16.6,7.7-25.4c3.1-8.8,6.1-16.8,9.1-24h-13.2c-1.2,0-1.7-0.8-1.7-2.5c0-0.8,0.2-1.6,0.6-2.3c0.4-0.7,1-1,1.9-1h14.9
		c2.8-6.4,5.8-12.6,9-18.6c3.1-6,6.2-11.7,9.2-17.1c3.8-6.7,7.9-11.7,12.2-15.1c4.3-3.3,8-5,11.2-5c2.5,0,4.6,1,6.2,2.9
		c1.7,1.9,2.5,4.8,2.5,8.7c0,2.3-0.5,5.6-1.5,9.7c-1,4.1-2.6,8.4-4.7,12.9c-1.2,2.3-2.8,5.7-4.9,10c-2.1,4.4-4.1,8.2-6.1,11.6h11.9
		c1.2,0,1.7,0.8,1.7,2.5c0,0.7-0.2,1.4-0.5,2.1c-0.3,0.8-0.8,1.1-1.5,1.1h-14.7c-4.1,7.2-8.9,14.2-14.2,21.1
		c-5.3,6.9-11.6,13.7-18.9,20.6c-0.5,1.5-1.1,3.7-1.9,6.5c-0.7,2.9-1.4,5.7-2,8.7c-0.6,2.9-1.3,6.4-2.1,10.4c-0.5,2.2-0.7,4.2-0.7,6
		c0,3.5,0.8,6.1,2.5,7.7c1.7,1.6,3.6,2.4,5.7,2.4c1.3,0,2.7-0.2,4-0.6c1.3-0.4,2.8-1.2,4.5-2.4c5.8-4.2,10.9-9.9,15.3-17.1
		c4.4-7.2,8.3-14.2,11.6-20.9c1-2,2-3,3-3c0.7,0,1,0.5,1,1.5c0,0.5-0.2,1.4-0.7,2.8c-3.7,7.7-6.7,13.9-9.2,18.6
		c-2.5,4.7-4.9,8.6-7.2,11.7c-2.3,3.1-5.1,6.2-8.2,9.2c-2.3,2.3-5,4.1-8,5.3C334.3,250,331.3,250.5,328.3,250.5z M331.8,194
		c4.8-5,9.3-10.4,13.6-16.1c4.2-5.7,8.2-11.6,11.8-17.6h-11.7c-2.7,6.2-5.1,12.2-7.5,18.1C335.7,184.3,333.7,189.5,331.8,194z
		 M348,154.6h12.7c2.3-4.4,4.5-8.6,6.6-12.8c2.1-4.2,3.9-8.4,5.6-12.6c1.2-2.7,2.2-5.7,3-9c0.8-3.3,1.2-5.9,1.2-7.8
		c0-2.5-0.6-3.8-1.7-3.8c-0.8,0-2,0.7-3.6,2.1c-1.6,1.4-3.5,3.8-5.8,7.2c-3,4.2-5.9,9.6-8.8,16.2C354.2,140.7,351.2,147.5,348,154.6
		z"/>
	<path class="st7" d="M509.5,351c-11.6,0-21-2.2-28.2-6.5c-7.2-4.4-10.8-9.6-10.8-15.8c0-4.5,2.4-9.5,7.1-14.8
		c4.7-5.4,12.4-10.2,23-14.6c16.3-6.9,33.5-11.3,51.8-13.2c18.2-1.9,37.1-2.9,56.5-2.9c6.5-16.2,12.6-32.4,18.4-48.5
		c5.8-16.1,11-32.5,15.4-49.2c-3,6.9-7,14.7-11.9,23.4c-5,8.7-10.7,17.1-17.2,25.3c-6.5,8.1-13.6,14.9-21.4,20.2
		c-9.6,6.5-19.6,9.8-29.9,9.8c-7.6,0-14.2-2.3-19.7-6.8c-5.5-4.5-8.2-11.6-8.2-21.4c0-1,0-2.1,0.1-3.3c0.1-1.2,0.2-2.3,0.4-3.5
		c1.3-8.4,4-17.4,8.1-27.1c4.1-9.7,8.7-19.3,13.9-28.8c5.2-9.5,10.1-18,14.6-25.5c5.3-8.7,10-17.6,13.9-26.6c4-9,7.1-17.8,9.2-26.1
		c2.2-8.4,3.2-15.7,3.2-22.1c0-4.9-0.7-9.2-2.1-12.9c-1.4-3.8-3.7-6.7-6.8-8.7c-7.3-4.7-15.9-7-25.9-7c-10.6,0-21.8,2.4-33.6,7.3
		C517.7,56.4,506.2,63,495,71.3c-11.2,8.3-21.2,17.7-30,28.3c-8.8,10.6-15.6,21.5-20.4,32.9c-3,7.2-5.2,13.9-6.6,20.1
		c-1.4,6.2-2.1,11.9-2.1,17.1c0,9,1.7,16.5,5.2,22.5c3.5,5.9,8,10.4,13.7,13.4c5.6,3,11.7,4.5,18.2,4.5c5.3,0,10.6-0.9,15.9-2.8
		c5.8-2,11.2-5.4,16.3-10.1c5.1-4.7,9.5-10,13.4-15.8c3.9-5.9,6.9-11.8,9.1-17.8c2.2-6,3.2-11.5,3.2-16.3c0-4.9-1.2-8.8-3.6-11.9
		c-2.4-3.1-6.3-4.6-11.8-4.6c-2,0-4.1,0.3-6.5,0.8c-0.7,0.2-1.2,0.3-1.7,0.3c-0.5,0-0.9,0-1.2,0c-1.5,0-2.2-0.3-2.2-1
		c0-0.3,0.5-0.9,1.5-1.6c1-0.8,2.1-1.2,3.2-1.4c4.8-1.2,8.9-1.8,12.2-1.8c6.8,0,11.8,1.9,14.9,5.8c3.1,3.9,4.7,8.8,4.7,14.8
		c0,7-2.1,14.9-6.3,23.5c-4.2,8.6-10.2,16.8-18,24.6c-7.8,7.8-17.2,13.9-28.1,18.5c-6,2.5-12.1,3.8-18.4,3.8
		c-8.3,0-16.1-2.1-23.3-6.4c-7.2-4.3-13.1-10.3-17.5-18.2c-4.5-7.9-6.7-17.2-6.7-27.9c0-6.5,0.8-12.9,2.5-19.2
		c1.7-6.3,4.1-12.8,7.2-19.5c6.1-12.9,14.3-24.7,24.4-35.3c10.1-10.6,21.3-19.9,33.5-27.8c12.2-7.9,24.6-13.9,37.2-18.2
		c12.6-4.3,24.5-6.4,35.6-6.4c4.8,0,9.4,0.4,13.7,1.1c4.3,0.8,8.3,2.1,11.9,3.9c8.8,3.9,15,9.3,18.7,16.2c3.6,7,5.5,14.7,5.5,23.2
		c0,9.5-1.9,19.7-5.7,30.5c-3.8,10.8-8.7,21.3-14.7,31.5c-5.6,9.5-11.2,19.5-16.6,29.9c-5.4,10.4-10.1,20.4-14.1,30.1
		c-4,9.7-6.8,18.4-8.5,26.1c-0.3,1.7-0.6,3.4-0.7,5c-0.2,1.7-0.2,3.2-0.2,4.5c0,5.9,1.4,10.1,4.2,12.8c2.8,2.7,6.4,4,10.7,4
		c7,0,14.3-2.8,22.2-8.3c6.1-4.4,12.1-10.1,17.8-17.3c5.7-7.2,11.1-15.1,16.1-23.7c5-8.6,9.5-17.3,13.4-26.1c4-8.8,7.4-17,10.2-24.7
		c2.8-7.7,5-14.2,6.5-19.3c0.3-1.5,1.6-3.3,3.7-5.3c2.2-2,4.2-3,6.2-3c1.3,0,2.4,0.7,3.4,2c0.9,1.3,1.4,3.7,1.4,7
		c0,3.4-0.7,8.5-2.2,15.3c-2.2,9.7-4.8,20.3-8,31.8c-3.2,11.5-6.7,23.1-10.6,34.9c-3.9,11.8-8,23.1-12.4,33.9
		c-4.4,10.8-8.8,20.4-13.3,28.8c12.3,0,23.7-0.4,34.2-1.3c10.5-0.8,18.1-2.6,22.8-5.3c5.5-3.2,9.6-5.9,12.3-8.2
		c2.7-2.3,4.1-5.8,4.1-10.7v-1.5c0-1.5,0.2-2.3,0.7-2.3c0.7,0,1.4,1.3,2.2,4c0.2,0.5,0.3,1,0.4,1.5c0.1,0.5,0.1,1.1,0.1,1.8
		c0,3.5-1.5,7.5-4.4,11.9c-2.9,4.4-7.8,8.1-14.6,10.9c-6.1,2.5-14.8,4-26,4.5s-23.2,0.8-36,1c-8.3,12.7-18.7,23.7-31.2,32.9
		c-12.5,9.2-25.2,16.2-38,21.1c-7,2.7-13.6,4.6-20,5.8C521.2,350.4,515.2,351,509.5,351z M511.3,344c4.8,0,10-0.5,15.7-1.5
		c5.6-1,11.2-2.5,16.7-4.5c11.3-4.2,22.4-10.3,33.5-18.2c11-8,20.4-18.1,28-30.3c-16.9,0-34,1.3-51.3,3.9
		c-17.3,2.6-33.4,8.2-48.3,17c-7.5,4.2-12.8,8.1-16.1,11.8c-3.2,3.7-4.9,6.9-4.9,9.8c0,3.7,2.5,6.6,7.6,8.8
		C497.3,342.9,503.6,344,511.3,344z"/>
	<path class="st7" d="M682.5,250.5c-6.3,0-11-2.1-13.9-6.4c-3-4.3-4.5-9.5-4.5-15.7c0-7.5,1.7-15.4,5.2-23.6
		c3.3-7.7,7.5-14.7,12.7-21.1c5.1-6.4,10.7-11.5,16.7-15.5c6-3.9,11.8-5.9,17.4-5.9c6.3,0,11,2.1,13.9,6.3c3,4.2,4.5,9.5,4.5,15.8
		c0,7.7-1.7,15.6-5.2,23.6c-2,4.5-4.8,9.5-8.5,14.9c-3.7,5.4-7.8,10.4-12.4,14.9c1,1.8,2.4,3.4,4.2,4.6c1.8,1.3,4.3,1.9,7.5,1.9
		c4,0,7.8-1.7,11.3-5c3.6-3.3,6.8-7.4,9.8-12.2c3-4.8,5.6-9.6,8-14.4c2.3-4.9,4.2-8.8,5.7-11.8c0.5-1,1.3-1.5,2.5-1.5
		c0.7,0,1.2,0.3,1.5,0.9c0.3,0.6,0.2,1.5-0.2,2.6c-1,2.5-2.7,6.2-5,11.2c-2.3,4.9-5.1,10-8.5,15.3c-3.3,5.3-7.1,9.8-11.4,13.4
		c-4.3,3.7-9.1,5.5-14.4,5.5c-3.7,0-6.8-0.6-9.5-1.9c-2.7-1.3-4.8-2.8-6.5-4.6c-3.5,2.7-7,4.8-10.5,6.3
		C689.5,249.8,686,250.5,682.5,250.5z M686.2,245c4.5,0,9.3-2.2,14.4-6.5c-1.3-2-2.3-4.1-3-6.3c-0.7-2.2-1-4.2-1-6
		c0-3,0.7-5.6,2.1-7.8c1.4-2.2,3.6-3.3,6.6-3.3c2.2,0,3.9,0.8,5.4,2.4c1.4,1.6,2.1,3.4,2.1,5.4c0,0.5,0,1-0.1,1.4
		c-0.1,0.4-0.2,0.9-0.4,1.4c2.8-3.9,5.5-8.4,8-13.6c5.5-11.9,8.2-21.7,8.2-29.4c0-3.9-0.7-6.9-2.2-9c-1.5-2.2-3.7-3.3-6.7-3.3
		c-3.5,0-7.3,1.5-11.3,4.5c-4.1,3-8,7-11.7,12.1c-3.7,5-7,10.6-9.8,16.8c-2.7,5.7-4.8,11.2-6.3,16.5c-1.6,5.3-2.4,9.8-2.4,13.7
		c0,3.4,0.7,6,2,8C681.3,244,683.4,245,686.2,245z"/>
	<path class="st7" d="M761.9,250.5c-1.8,0-4-0.4-6.6-1.3c-2.6-0.8-4.8-2.4-6.7-4.6c-1.9-2.3-2.9-5.7-2.9-10.2c0-4.4,1-8.6,3.1-12.7
		c2.1-4.1,4-8.1,5.8-11.9c-0.5,0-1-0.2-1.6-0.5c-0.6-0.3-0.9-0.8-0.9-1.5c0-0.7,0.2-1.3,0.5-2c0.7-1.3,1.4-2.8,2.2-4.3
		c0.8-1.5,1.6-3.1,2.2-4.8c2.5-5.2,5-10.2,7.5-14.9c2.5-4.8,4.6-9,6.5-12.7c1.8-3.7,5-5.5,9.5-5.5H796c-2.8,2.2-5.4,4.6-7.6,7.2
		c-2.2,2.6-5,7.3-8.3,14.2c-2.3,4.7-4.4,8.8-6.1,12.4c-1.7,3.6-3.5,7.2-5.2,10.9c-1.7,3.7-3.2,6.8-4.4,9.3
		c-2.2,4.7-3.6,8.4-4.2,11.2c-0.7,2.8-1,5.3-1,7.7c0,5.5,1.8,8.3,5.5,8.3c4,0,8.8-3.3,14.4-9.8c4.6-5.5,9.2-12.1,13.7-19.8
		c4.5-7.7,8.8-15.7,12.8-23.9c4.1-8.2,7.7-15.6,10.8-22.1c1.8-3.7,5.1-5.5,9.7-5.5h13.7c-2.5,2-4.6,3.9-6.2,5.7
		c-1.7,1.8-3.3,4.1-4.9,7c-1.6,2.9-3.7,7.1-6.3,12.4c-2.2,4.5-4.4,9.3-6.8,14.4c-2.4,5.1-4.5,9.9-6.3,14.4c-1.8,4.5-3,8.2-3.5,11.1
		c-0.2,1.7-0.3,2.9-0.5,3.8c-0.2,0.8-0.2,1.8-0.2,2.8c0,3.2,0.5,5.4,1.6,6.8c1.1,1.3,2.4,2,3.9,2c4,0,8-2.3,12.1-6.8
		c4.1-4.5,8-10,11.7-16.6c3.7-6.5,6.9-12.7,9.6-18.6c1-1.8,1.9-2.8,2.7-2.8c1,0,1.5,0.6,1.5,1.8c0,0.8-0.3,1.8-1,3
		c-1.8,4-4.1,8.6-6.7,13.8c-2.7,5.2-5.6,10.3-9,15.3c-3.3,5-7,9.2-11,12.4s-8.3,4.9-12.9,4.9c-4.1,0-7.6-1.5-10.2-4.6
		c-2.7-3.1-4-7.5-4-13.2c0-4.5,0.8-9.4,2.5-14.6c-2.8,5-6.1,10-9.7,15.1c-3.7,5-7.6,9.2-11.7,12.4
		C770.2,248.9,766,250.5,761.9,250.5z"/>
	<path class="st7" d="M872.9,250.8c-3.2,0-6.3-1.3-9.5-3.9c-3.2-2.6-4.7-6.8-4.7-12.7c0-4.5,1.1-9.7,3.2-15.6
		c2-5.7,4.7-11.2,8.1-16.6c3.4-5.4,5.8-9.7,7.3-13.1c0.5-1.3,0.7-2.5,0.7-3.5c0-3-1.9-5.2-5.6-6.5c-3.7-1.3-8.6-2.1-14.6-2.3l-3,8.3
		c-1.8,5.4-4.4,11.6-7.6,18.8c-3.2,7.2-6.8,14.2-10.7,20.9c-3.9,6.7-7.9,12.1-12.1,16.1c-0.3,0.3-0.7,0.5-1.2,0.5
		c-0.7,0-1.1-0.4-1.4-1.3c-0.2-0.8,0.1-1.8,1.1-3c6.5-8.7,12.3-18.4,17.4-29c5.1-10.6,9.5-21.5,13.1-32.5
		c3.6-11.1,6.2-21.3,7.8-30.7c0.5-2.7,1.4-4.6,2.7-5.9c1.3-1.3,2.7-1.9,4.2-1.9c2.2,0,4.1,1,6,3.1c1.8,2.1,2.7,5.1,2.7,8.9
		c0,0.7,0,1.4-0.1,2.3c-0.1,0.8-0.2,1.7-0.4,2.5c-0.7,3.5-2.6,6.8-5.8,9.9c-3.2,3.1-5.8,5.4-7.8,6.9c1.7,0.2,3.4,0.3,5.2,0.4
		c1.8,0.1,3.8,0.1,6,0.1c7.8,0,15.5-0.5,23.1-1.5c0.3,1,0.5,1.8,0.5,2.3c0,2.2-0.6,4.9-1.9,8.3c-1.2,3.4-2.5,6.4-3.9,9
		c-0.7,1.5-2,4.2-4,8.2c-2,3.9-4.1,8.4-6.5,13.3c-2.3,4.9-4.3,9.8-5.8,14.6c-1.6,4.8-2.4,8.8-2.4,12.2c0,4.4,1.7,6.5,5,6.5
		c2.5,0,5.2-1.6,8.2-4.9c3-3.3,5.9-7.3,8.8-12.1c2.9-4.8,5.6-9.5,8-14.1c2.4-4.6,4.3-8.2,5.6-10.9c0.7-1.7,1.6-2.5,2.7-2.5
		c0.7,0,1,0.6,1,1.8c0,0.7-0.2,1.7-0.7,3c-1.8,3.9-4,8.2-6.5,13.1c-2.5,4.9-5.3,9.6-8.3,14.3c-3.1,4.7-6.4,8.8-10,12.2
		c-3.6,3.4-7.4,5.7-11.6,6.7C875.1,250.7,874.2,250.8,872.9,250.8z"/>
	<path class="st7" d="M1054.1,283.5c-16.1,0-30.4-3.1-42.8-9.4c-12.4-6.3-22.2-14.9-29.2-25.9c-7.1-11-10.6-23.4-10.6-37.3
		c0-8.7,1.5-17.7,4.5-26.9c1.7-4.9,4.1-9.1,7.2-12.8c3.1-3.7,6.5-6.7,10-9c3.5-2.3,6.5-3.9,9-4.5c1.8-0.5,3-0.8,3.5-0.8
		c1.2,0,0.8,0.8-1.1,2.4c-1.9,1.6-4.3,3.3-7.1,5.2c-3.2,2.2-6.8,5.4-11,9.8c-4.1,4.4-7,10.8-8.5,19.3c-0.3,2-0.6,4-0.7,6
		c-0.2,2-0.2,3.9-0.2,5.8c0,10.9,2.4,20.5,7.3,28.8c4.9,8.3,11.2,15.2,19,20.7c7.8,5.5,16.3,9.7,25.5,12.6c9.2,2.8,18,4.3,26.5,4.3
		c13.4,0,25.9-2.6,37.3-7.9c11.4-5.3,21.9-12.5,31.5-21.7c9.5-9.2,18.1-19.8,25.8-31.8c7.6-12,14.3-24.7,20.2-38.1
		c-1.3,0-3.2,0-5.7-0.1c-2.5-0.1-5.2-0.1-8.2-0.1c-4.5,0-9.3,0.3-14.6,0.9c-5.2,0.6-10.1,1.8-14.7,3.8c-4.6,1.9-8.3,4.9-11.1,8.9
		c-1,1.2-1.9,1.8-2.7,1.8c-0.7,0-1.2-0.4-1.5-1.3c-0.3-0.8-0.2-1.8,0.2-2.8c4-8.9,9.5-14.9,16.4-18.1c7-3.2,14.8-4.8,23.4-4.8
		c3.6,0,7.3,0.2,11.1,0.6c3.7,0.4,7.4,1,11.1,1.6c3-7.2,6.3-14.4,10-21.6c3.6-7.2,7.2-13.9,10.7-20.1c3.5-6.2,6.6-11.4,9.5-15.7
		c2.8-4.3,4.8-7.1,6-8.4c-10.6-5.4-21.6-10.3-32.9-14.8c-11.3-4.5-23.1-7.6-35.3-9.3c-2.5-0.3-5-0.6-7.5-0.8
		c-2.5-0.2-4.9-0.3-7.2-0.3c-11,0-20.7,1.8-29.4,5.3c-8.6,3.5-15.9,8-21.9,13.4c-6,5.4-10.5,11.2-13.7,17.3
		c-3.2,6.1-4.7,11.9-4.7,17.2c0,7,2.5,12.1,7.5,15.1c3,1.8,6,3.2,9.1,4c3.1,0.8,6,1.3,8.8,1.3c6.3,0,12-1.3,17.2-4
		c5.1-2.7,9.2-5.7,12.3-8.9c3.1-3.3,4.6-5.7,4.6-7.4c0-1.7,0.5-3.1,1.5-4.4c1-1.3,1.8-1.9,2.5-1.9c0.7,0,1,0.6,1,1.8
		c0,0.8-0.2,2-0.7,3.5c-2.5,8.7-7.5,15.4-15.1,20c-7.6,4.6-15.5,6.9-23.8,6.9c-3.5,0-6.9-0.4-10.3-1.3c-3.4-0.8-6.6-2.1-9.6-3.8
		c-5.5-3.2-9.5-7.2-12.2-12.2c-2.7-4.9-4-10.3-4-16c0-6.5,1.7-13.3,5-20.2c3.3-6.9,8.1-13.3,14.3-19.1c6.2-5.8,13.7-10.5,22.5-14.1
		c8.8-3.6,18.7-5.4,29.9-5.4c8.5,0,17.9,1.4,28.4,4.3c13.8,3.7,26.5,8.3,38.1,13.7c11.6,5.4,21.2,10.6,28.9,15.5
		c1.2-1.3,3.1-3.1,5.7-5.3c2.7-2.2,6.1-3.3,10.2-3.3c1.5,0,3.2,0.3,5.2,0.8c1.5,0.5,2.6,1.3,3.4,2.5c0.7,1.2,1.1,2.3,1.1,3.5
		c0,1.5-0.5,2.3-1.5,2.3c-0.7,0-1.7-0.8-3-2.3c-1.2-0.5-2.4-0.8-3.7-0.8c-2.2,0-4.2,0.6-6.2,1.8c-2,1.2-3.7,2.4-5.2,3.8
		c3,1.5,6.9,3.3,11.8,5.3c4.9,2,10.3,4,16.3,6c6,2,12,3.6,18,4.9c6.1,1.3,11.7,1.9,16.8,1.9c4.3,0,8.2-0.6,11.7-1.8
		c3.5-1.2,6-3.3,7.5-6.5c1.3-3.2,2.6-4.8,3.7-4.8c0.8,0,1.2,0.9,1.2,2.8c0,0.5,0,1,0,1.5s-0.1,1-0.2,1.5c-0.7,4.5-3.4,8.3-8.2,11.4
		c-4.8,3.1-10.6,4.6-17.4,4.6c-1,0-2,0-3.1-0.1c-1.1-0.1-2.2-0.2-3.4-0.4c-9.6-1.7-18.6-4.1-26.9-7.3c-8.3-3.2-15.2-6.2-20.8-9
		c-5.6-2.8-9.2-4.6-10.8-5.3c-5.3,6-10,13.1-14.2,21.1c-4.1,8-7.8,16-10.8,23.9c-3.1,7.9-5.8,14.6-8.3,20.1
		c5.1,0.7,10.7,1.1,16.8,1.4c6.1,0.3,11.7,0.4,17,0.4c2.7,0,5.1,0,7.3-0.1c2.2-0.1,4.2-0.1,5.8-0.1h1.5c3.3,0,5,0.6,5,1.8
		c0,1.2-1.9,2.3-5.7,3.3c-2.5,0.7-6.7,1.2-12.6,1.5c-5.9,0.3-12,0.5-18.3,0.5c-3.8,0-7.5-0.1-11-0.3c-3.5-0.2-6.5-0.4-9-0.8
		c-3.5,9.5-7.5,19.4-11.9,29.6c-4.5,10.2-9.9,20.1-16.3,29.8c-6.4,9.6-14,18.3-22.9,26.1c-8.9,7.8-19.4,13.9-31.5,18.5
		C1084.3,281.2,1070.2,283.5,1054.1,283.5z"/>
	<path class="st7" d="M1252.7,251.5c-6.1,0-11.7-2-16.5-6c-4.9-4-7.3-10.1-7.3-18.3c0-7.5,1.8-15.6,5.5-24.2
		c3.6-8.6,8.3-16.2,13.9-22.7c4.8-5.7,10.2-10.4,16.2-14.1c6-3.7,11.6-5.5,16.9-5.5c3.6,0,6.8,1,9.5,3c2.8,2.2,4.2,5.3,4.2,9.3
		c0,4.2-1.6,8.8-4.7,13.8c-3.2,5-7.6,9.7-13.4,14.1c-2.5,1.8-5.6,3.6-9.5,5.3c-3.8,1.7-7.6,3.1-11.4,4.1c-3.8,1.1-7,1.6-9.5,1.6
		c-0.8,2-1.6,4.7-2.4,8c-0.7,3.4-1.1,6.8-1.1,10.3c0,4.2,0.8,8,2.5,11.3c1.7,3.4,4.7,5,9.2,5c5.5,0,10.5-1.6,14.9-4.8
		c4.5-3.2,8.5-7.2,11.9-11.9c3.5-4.8,6.4-9.6,8.8-14.4c2.4-4.9,4.4-9,5.8-12.3c1-2.3,2.3-3.5,4-3.5c0.8,0,1.2,0.4,1.2,1.3
		c0,0.7-0.2,1.5-0.7,2.5c-2.3,5-4.8,10.3-7.5,16c-2.7,5.6-5.8,10.9-9.5,15.8c-3.7,4.9-8,8.9-13.1,11.9
		C1265.7,250,1259.6,251.5,1252.7,251.5z M1248.2,207.3c2.3,0,6.2-0.9,11.7-2.6s10.5-4.6,14.9-8.4c4.3-3.9,7.6-8.1,10-12.7
		c2.3-4.6,3.5-8.5,3.5-11.7c0-3.7-1.3-5.5-4-5.5c-2,0-4.7,1.3-8.2,4c-3.5,2.7-7.8,7.2-12.9,13.6c-3.2,4-6.1,8.4-9,13.1
		C1251.3,201.7,1249.4,205.1,1248.2,207.3z"/>
	<path class="st7" d="M1314.4,251.5c-6.1,0-11.7-2-16.5-6c-4.9-4-7.3-10.1-7.3-18.3c0-7.5,1.8-15.6,5.5-24.2
		c3.6-8.6,8.3-16.2,13.9-22.7c4.8-5.7,10.2-10.4,16.2-14.1c6-3.7,11.6-5.5,16.9-5.5c3.6,0,6.8,1,9.5,3c2.8,2.2,4.2,5.3,4.2,9.3
		c0,4.2-1.6,8.8-4.7,13.8c-3.2,5-7.6,9.7-13.4,14.1c-2.5,1.8-5.6,3.6-9.5,5.3c-3.8,1.7-7.6,3.1-11.4,4.1c-3.8,1.1-7,1.6-9.5,1.6
		c-0.8,2-1.6,4.7-2.4,8c-0.7,3.4-1.1,6.8-1.1,10.3c0,4.2,0.8,8,2.5,11.3c1.7,3.4,4.7,5,9.2,5c5.5,0,10.5-1.6,14.9-4.8
		c4.5-3.2,8.5-7.2,11.9-11.9c3.5-4.8,6.4-9.6,8.8-14.4c2.4-4.9,4.4-9,5.8-12.3c1-2.3,2.3-3.5,4-3.5c0.8,0,1.2,0.4,1.2,1.3
		c0,0.7-0.2,1.5-0.7,2.5c-2.3,5-4.8,10.3-7.5,16c-2.7,5.6-5.8,10.9-9.5,15.8c-3.7,4.9-8,8.9-13.1,11.9
		C1327.4,250,1321.4,251.5,1314.4,251.5z M1309.9,207.3c2.3,0,6.2-0.9,11.7-2.6s10.5-4.6,14.9-8.4c4.3-3.9,7.6-8.1,10-12.7
		c2.3-4.6,3.5-8.5,3.5-11.7c0-3.7-1.3-5.5-4-5.5c-2,0-4.7,1.3-8.2,4c-3.5,2.7-7.8,7.2-12.9,13.6c-3.2,4-6.1,8.4-9,13.1
		C1313.1,201.7,1311.1,205.1,1309.9,207.3z"/>
	<path class="st7" d="M1370.9,251.3c-7,0-11.7-1.9-14.2-5.7c-2.5-3.8-3.7-8.2-3.7-13.4c0-5.4,0.7-10.9,2.2-16.6
		c1.5-5.7,2.8-10.5,4-14.3c2.7-9.4,6-19.4,10.1-30c4.1-10.6,8.5-21.1,13.4-31.4c4.9-10.3,9.7-19.6,14.6-27.8
		c3.8-6.5,7.9-11.4,12.3-14.7c4.4-3.3,8.3-4.9,11.6-4.9c2.7,0,4.8,1,6.3,2.9c1.6,1.9,2.4,4.8,2.4,8.7c0,2.7-0.5,5.9-1.4,9.5
		c-0.9,3.7-2.4,7.9-4.6,12.6c-5.8,13.1-12.7,26.1-20.8,39.2c-8,13.1-18.2,25.3-30.5,36.7c-0.7,2.2-1.5,4.7-2.6,7.7
		c-1.1,2.9-2,5.9-2.9,8.9c-1,4.5-1.5,8.4-1.5,11.6c0,5.2,1,9.1,3.1,11.7c2.1,2.6,4.6,3.9,7.6,3.9c2.7,0,5.5-1,8.5-2.9
		c3-1.9,5.8-4.7,8.5-8.4c4-5.9,7.6-11.8,10.8-18c3.2-6.1,5.7-10.8,7.3-14.2c1-1.8,2.1-2.8,3.2-2.8c0.8,0,1.2,0.5,1.2,1.5
		c0,0.8-0.2,1.8-0.7,2.8c-1.5,3.4-3.4,7.7-5.8,12.9c-2.4,5.3-5.4,10.6-9,15.8c-3.6,5.3-7.8,9.7-12.7,13.3
		C1382.8,249.5,1377.2,251.3,1370.9,251.3z M1374.6,194c6-6.2,11.8-13.4,17.4-21.5c5.6-8.1,10.9-16.6,15.8-25.4
		c4.9-8.8,9-17.1,12.3-25c1.2-2.5,2.1-5.3,2.9-8.3c0.7-3,1.1-5.5,1.1-7.5c0-2.3-0.6-3.5-1.7-3.5c-0.7,0-1.7,0.6-3,1.9
		c-1.3,1.3-3.1,3.4-5.2,6.4c-3.2,4.2-6.6,9.9-10.3,17.1c-3.7,7.2-7.5,14.9-11.3,23.1c-3.8,8.2-7.3,16.1-10.5,23.7
		C1378.9,182.7,1376.4,189,1374.6,194z"/>
	<path class="st7" d="M1419.2,250.5c-6.1,0-10.5-1.8-12.9-5.4c-2.5-3.6-3.7-7.7-3.7-12.4c0-2.5,0.3-5.1,0.9-7.7
		c0.6-2.6,1.3-5,2.1-7.2l16.7-43c0.5-1.3,0.7-2.5,0.7-3.5c0-1.7-0.4-3.1-1.2-4.4c-0.8-1.3-1.4-2.1-1.7-2.6l13.7-0.5
		c2.5-0.2,4.3,0.1,5.4,0.9c1.1,0.8,1.6,1.6,1.6,2.6c0,1-0.6,2.9-1.7,5.5l-20.7,49c-1.8,4.2-2.8,6.6-3,7.3c-0.5,2.5-0.8,4.1-1,4.8
		c-0.2,0.7-0.2,1.1-0.2,1.3c0,0.2,0,0.8,0,2c0,2.2,0.5,4,1.6,5.5c1.1,1.5,2.9,2.3,5.6,2.3c1.7,0,3.6-0.5,5.7-1.5c2.2-1,3.7-2,4.7-3
		c4.1-4.4,8.3-10.1,12.3-17.2c4.1-7.1,7.8-14.2,11.3-21.2c0.7-1.7,1.5-2.5,2.5-2.5c0.8,0,1.2,0.6,1.2,1.8c0,0.7-0.2,1.7-0.7,3
		c-1.7,3.5-3.7,7.9-6.2,13.1c-2.5,5.2-5.4,10.3-8.8,15.5c-3.4,5.1-7.1,9.3-11.1,12.7C1428.1,248.9,1423.8,250.5,1419.2,250.5z
		 M1439.3,148.5c-2.5,0-4.5-0.9-6.1-2.6c-1.6-1.8-2.4-3.9-2.4-6.4c0-3.2,1.2-5.9,3.7-8.3c2.5-2.3,5.2-3.5,8.2-3.5
		c2.7,0,4.8,0.8,6.5,2.5c1.7,1.7,2.5,3.7,2.5,6c0,3.2-1.2,6-3.7,8.5C1445.6,147.3,1442.6,148.5,1439.3,148.5z"/>
	<path class="st7" d="M1431.6,252.5c6-12.2,11.7-24.3,17.3-36.3c5.6-12,11.2-23.4,17-34.3c3.3-6,6.1-10.3,8.3-12.7
		c2.2-2.4,5.3-3.6,9.1-3.6c1.3,0,2.7,0.2,4.2,0.6c1.5,0.4,3,0.6,4.5,0.6c1,0,1.7-0.1,2.2-0.3c-2.3,1.3-5.3,4.6-9,9.9
		c-3.7,5.3-7.4,11.3-11.2,18.2c-3.8,6.9-7.2,13.3-10.2,19.3c3.1-3.9,6.4-7.7,9.8-11.6c3.4-3.9,7.2-7.5,11.3-11.1
		c4-3.5,8.8-7.2,14.3-10.9c5.6-3.8,11-6.9,16.3-9.4c5.3-2.5,9.5-3.8,12.7-3.8c1.2,0,2,0.1,2.5,0.3c-3.7,6.5-6.8,12.4-9.6,17.7
		c-2.7,5.3-5.5,10.9-8.3,16.8c-2.8,5.9-5.4,11.6-7.6,17.1c-2.2,5.4-3.7,10-4.4,13.7c-0.5,2.2-0.7,4.2-0.7,6c0,2.7,0.5,4.4,1.5,5.3
		c1,0.8,2.1,1.3,3.2,1.3c3.1,0,6.5-1.7,10-5.2c3.5-3.4,6.8-7.7,10.1-12.7c3.2-5,6.1-9.9,8.7-14.7c2.6-4.8,4.4-8.4,5.6-10.9
		c0.7-1.3,1.2-2.1,1.5-2.4c0.3-0.3,0.8-0.4,1.5-0.4c1,0,1.5,0.7,1.5,2c0,0.8-0.2,1.8-0.7,2.8c-2,3.9-4.4,8.5-7.1,13.8
		c-2.7,5.4-5.8,10.6-9.3,15.7c-3.5,5.1-7.3,9.4-11.4,12.8c-4.1,3.4-8.6,5.2-13.4,5.2c-3.3,0-6.8-1.2-10.3-3.5
		c-3.6-2.3-5.4-6.7-5.4-13.1c0-1.8,0.2-3.8,0.5-5.9c0.3-2.1,0.9-4.4,1.7-6.9c1.3-3.3,2.9-6.9,4.7-10.8c1.8-3.9,4.8-9.1,9-15.8
		c1.2-1.8,1.9-3.3,2.1-4.3c0.2-1,0.4-1.8,0.4-2.5c0-2-0.9-3-2.7-3c-1.5,0-3.7,0.8-6.6,2.5c-2.9,1.7-6.5,4.6-10.8,8.8
		c-4.1,4-9.1,9.7-14.8,17.1c-5.7,7.4-12.3,18.3-19.8,32.7c-1.2,2.2-2.5,3.4-3.9,3.5c-1.4,0.2-3.4,0.3-5.8,0.5
		c-1.7,0.2-3.2,0.3-4.7,0.4C1433.9,251.2,1432.6,251.7,1431.6,252.5z"/>
	<path class="st7" d="M1522,330.7c-15.8,0-23.6-6.5-23.6-19.6c0-6.2,2.2-11.7,6.5-16.6c4.3-4.9,9.5-9,15.4-12.6
		c8.3-5,16.3-9,24.1-12.1c7.8-3,15.2-5.7,22.3-7.9c7.1-2.3,13.7-4.7,20-7.4c3-8.9,5-18.2,6-27.9c0.5-5,0.7-9.4,0.7-13.1
		c0-3.9-0.2-6.4-0.7-7.5c-1.8,3.5-4.2,7.8-7.2,12.8c-3,5-6.4,9.9-10.2,14.7c-3.8,4.8-7.9,8.8-12.3,11.9c-4.4,3.2-8.9,4.8-13.6,4.8
		c-1.7,0-3.2-0.3-4.7-0.8c-4.6-2-8-4.9-10.1-8.5c-2.1-3.7-3.1-7.9-3.1-12.6c0-7.5,2.2-15.7,6.5-24.4c4.3-8.7,9.5-16.7,15.4-23.9
		c4.8-5.9,10.5-10.6,16.9-14.1c6.5-3.5,13-5.3,19.7-5.3c7.6,0,14.8,2.6,21.4,7.8c2.5,2,3.7,4.2,3.7,6.5c0,2.5-1,3.8-3,3.8
		c-1.7,0-2.8-1.1-3.5-3.3c-2.3-6.2-6.1-9.3-11.2-9.3c-4.1,0-8.9,1.8-14.2,5.4c-5.3,3.6-10.3,8.1-14.9,13.4c-4,4.5-7.8,9.7-11.6,15.6
		c-3.7,5.9-6.8,11.6-9.2,17.3c-2.4,5.7-3.6,10.6-3.6,14.8c0,2.9,0.7,5.3,2,7.3c1.3,2,3.4,3,6.2,3c3.8,0,7.8-1.8,12.1-5.5
		c4.2-3.7,8.3-8.2,12.2-13.6c3.9-5.4,7.3-10.8,10.2-16.3c2.9-5.5,4.9-10.1,6.1-13.8c1.2-3.9,2.7-6.2,4.7-7.2c2-0.9,4-1.4,6-1.4
		s3.6-0.5,5-1.5c0.7,3.7,1.1,7.4,1.4,11.2c0.2,3.8,0.4,7.6,0.4,11.4c0,12.9-1.7,25.9-5,38.9c3-2.3,6.1-4.9,9.3-7.7s6-5.7,8.3-8.9
		c4.1-5.7,7.3-10.9,9.3-15.7c2.1-4.8,3.7-8.5,4.9-11.2c1-1.7,2.1-2.5,3.2-2.5c1,0,1.5,0.5,1.5,1.5c0,0.8-0.3,1.8-1,3
		c-4.1,8.9-8,16.5-11.4,22.7s-7.3,11.6-11.4,15.8c-4.1,4.3-9.3,7.9-15.4,10.9c-2.7,8-6.6,16.5-11.9,25.4
		c-5.3,8.9-11.5,17.2-18.7,25.1c-7.1,7.9-14.9,14.3-23.4,19.2C1539.9,328.2,1531.1,330.7,1522,330.7z M1516,325.7
		c3.7,0,7.5-0.8,11.6-2.4c4.1-1.6,7.9-3.5,11.6-5.7c3.6-2.2,6.5-4,8.5-5.5c3.8-3,7.7-6.8,11.7-11.3s7.5-8.9,10.5-13.1
		c2.8-4,5.5-8.3,8.1-12.7c2.6-4.4,4.8-8.8,6.6-13.2c-1.3,0.5-2.9,1.1-4.9,1.8c-1.9,0.7-3.3,1.2-4.1,1.5c-5.5,1.8-11.5,4-18,6.4
		c-6.6,2.4-13.1,5.1-19.5,8c-6.5,2.9-12.4,6.2-17.7,9.7c-4.6,3.2-8.5,7.4-11.6,12.6c-3.1,5.2-4.6,9.7-4.6,13.6c0,2.8,1,5.3,2.9,7.3
		C1508.8,324.7,1511.8,325.7,1516,325.7z"/>
	<path class="st7" d="M1642.7,251.5c-8.1,0-13.9-2.1-17.3-6.4c-3.4-4.3-5.1-8.8-5.1-13.4c0-3.9,1-7.4,2.9-10.6
		c1.9-3.2,4.2-4.9,6.8-5c3.3-6.5,6.9-13.6,10.8-21.4c3.9-7.7,7.5-15.2,10.8-22.4c2.3-4.9,5.3-9.5,8.8-14.1c3.6-4.5,7.5-7.1,11.8-7.8
		h2.5c1.3,0,2.5,0.1,3.6,0.3c1.1,0.2,2.2,0.5,3.4,1c1.8,0.8,2.7,2.1,2.7,3.8c0,1-0.6,1.5-1.7,1.5c-0.5,0-1.2-0.3-2-0.8
		c-2-0.8-3.7-1.3-5.2-1.3c-1,0-1.9,0.3-2.7,0.8c-3.2,1.7-5.4,4-6.6,7c-1.2,3-1.9,6.2-1.9,9.5c0,2.7,0.3,5.4,0.9,8.2
		c0.6,2.8,1.3,5.2,2.1,7.4c1.8,4.7,3.8,9.3,5.8,13.8c2.1,4.5,3.1,9.4,3.1,14.6c0,5-1.7,10.3-5,16c-3.3,5.6-7.6,10.1-12.7,13.4
		l1.7,0.3c0.8,0.2,1.4,0.3,1.7,0.3c0.3,0,0.6,0,0.7,0c3.8,0,7.4-1.1,10.8-3.4c3.4-2.3,6.4-5.1,9.1-8.4c2.7-3.3,5.7-8,9.1-14.1
		c3.4-6,6.7-12.4,9.8-19.1c0.5-0.8,1.1-1.3,1.7-1.3c0.8,0,1.5,0.3,1.9,0.9c0.4,0.6,0.5,1.3,0.1,2.1c-2.2,4.7-4.6,9.8-7.3,15.2
		c-2.7,5.4-5.8,10.6-9.3,15.6c-3.5,4.9-7.5,9-12.1,12.1c-4.6,3.1-9.7,4.6-15.3,4.6c-1.3,0-2.7-0.1-4.2-0.3c-1.5-0.2-3-0.5-4.5-1
		c-1.7,0.7-3.4,1.2-5.1,1.6S1644.2,251.5,1642.7,251.5z M1640.7,247.5c1,0,1.9-0.1,2.7-0.4c0.8-0.3,1.6-0.5,2.2-0.6
		c-2.5-1.8-4.7-4.3-6.6-7.4c-1.9-3.1-3-7.1-3.4-11.9c-3,3.2-4.5,6.6-4.5,10.3c0,2.7,0.8,5,2.5,7
		C1635.4,246.5,1637.7,247.5,1640.7,247.5z M1650.1,244c2.8-2.3,5.4-5.8,7.6-10.3c2.2-4.5,3.4-10.5,3.4-17.8c0-6.5-0.7-13.5-2-20.9
		c-1.3-7.4-2-13.9-2-19.6c0-1.2,0-2.2,0.1-3.1c0.1-0.9,0.2-1.8,0.4-2.6c-2.2,4.5-4.6,9.8-7.5,15.7c-2.8,5.9-5.6,11.7-8.5,17.2
		c-2.8,5.5-5.2,10.2-7.2,14.1c1.8,0.2,3.2,0.8,4,1.9c0.8,1.1,1.2,3.2,1,6.4c-0.2,4.2,0.8,8.1,2.9,11.7
		C1644.4,240.2,1647,242.7,1650.1,244z"/>
</g>
</svg>
