<?xml version="1.0" encoding="utf-8"?>
<!-- Generator: Adobe Illustrator 26.0.3, SVG Export Plug-In . SVG Version: 6.00 Build 0)  -->
<svg version="1.1" id="Layer_1" xmlns="http://www.w3.org/2000/svg" xmlns:xlink="http://www.w3.org/1999/xlink" x="0px" y="0px"
	 viewBox="0 0 2000 399.53" style="enable-background:new 0 0 2000 399.53;" xml:space="preserve">
<style type="text/css">
	.st0{fill:#D0E28C;stroke:#9FA538;stroke-width:5.0013;stroke-miterlimit:10;}
	.st1{fill:#9FA538;stroke:#9FA538;stroke-width:5.0013;stroke-miterlimit:10;}
	.st2{fill:#9FA538;}
	.st3{fill:#EEDE6B;stroke:#D09637;stroke-width:5.0013;stroke-miterlimit:10;}
	.st4{fill:#D09637;stroke:#D09637;stroke-width:5.0013;stroke-miterlimit:10;}
	.st5{fill:#D09637;}
</style>
<g>
	<g id="Sad_Pop">
		<ellipse id="Head" class="st0" cx="1927.25" cy="148.16" rx="64.68" ry="65.29"/>
		<line id="Stick" class="st0" x1="1881.66" y1="192.98" x2="1712.38" y2="363.41"/>
		<g id="Face">
			
				<ellipse id="left_eye" transform="matrix(0.6241 -0.7813 0.7813 0.6241 622.6647 1580.8574)" class="st1" cx="1954.33" cy="143.29" rx="21.83" ry="4.31"/>
			<g>
				
					<ellipse id="right_eye" transform="matrix(0.6241 -0.7813 0.7813 0.6241 631.5897 1547.1735)" class="st1" cx="1923.78" cy="117.17" rx="21.83" ry="4.31"/>
				<g id="mouth">
					<path class="st2" d="M1920.69,207.97c5.56-7.02,8.74-15.71,7.89-24.57c-1.67-21.2-24.45-40.66-45.6-32.1
						c-4.13,1.54-7.94,3.99-11.59,6.78c2.86-3.58,6.41-6.71,10.56-9.01c8.49-4.82,19.22-4.73,27.95-0.52
						C1932.5,159.08,1941.6,191.14,1920.69,207.97L1920.69,207.97z"/>
				</g>
			</g>
		</g>
	</g>
	<g id="Happy_Pop">
		<line id="stick" class="st3" x1="1788.68" y1="145.51" x2="1763.33" y2="382.09"/>
		<ellipse id="head" class="st3" cx="1796.28" cy="81.72" rx="64.68" ry="65.29"/>
		<g id="Face_00000031902108841624924920000012599401845857218435_">
			
				<ellipse id="right_eye_00000142170539963848843900000012929203304991910562_" class="st4" cx="1774.3" cy="59.81" rx="4.29" ry="21.91"/>
			
				<ellipse id="left_eye_00000072253569717324630800000006829240024053101210_" class="st4" cx="1814.32" cy="60.77" rx="4.29" ry="21.91"/>
			<g id="mouth_00000107578615143095341370000001585113107148819878_">
				<path class="st5" d="M1760.06,95.45c1.01,8.72,4.75,16.99,11.47,22.56c12.77,10.69,33.61,11.58,46.32,0.41
					c6.56-5.76,9.66-14.33,10.72-22.97c1.07,9.07-1.43,19.11-8,25.77C1799.31,143.09,1756.44,127.73,1760.06,95.45L1760.06,95.45z"
					/>
			</g>
		</g>
	</g>
</g>
<g>
	<path class="st2" d="M91.92,264.61c-17.26,0-31.48-2.35-42.68-7.03c-11.2-4.69-19.5-10.93-24.89-18.72
		c-5.39-7.79-8.09-16.12-8.09-25c0-8.54,2.4-17.08,7.22-25.63c4.81-8.54,11.78-16.29,20.91-23.24c9.12-6.95,20.24-12.35,33.35-16.21
		c3.32-1,7.34-1.92,12.07-2.76c4.73-0.84,9.08-1.34,13.07-1.51c-4.65-1.67-9.38-4.02-14.19-7.03c-4.81-3.02-8.75-6.62-11.82-10.8
		c-3.07-4.19-4.44-8.71-4.11-13.57c0.66-7.7,3.36-14.78,8.09-21.23c4.73-6.45,10.83-12.27,18.29-17.46
		c7.47-5.19,15.68-9.55,24.64-13.06c8.96-3.52,18.04-6.24,27.25-8.17c9.21-1.92,17.88-2.89,26.01-2.89c1.82,0,3.57,0.04,5.23,0.13
		c1.66,0.09,3.24,0.21,4.73,0.38c13.44,1.51,23.23,4.73,29.37,9.67c6.14,4.94,9.21,10.51,9.21,16.71c0,7.2-3.86,14.32-11.57,21.36
		c-7.72,7.03-18.38,12.06-31.98,15.07c-2.66,0.5-4.73,0.75-6.22,0.75c-2.49,0-3.73-0.5-3.73-1.51c0-0.5,0.79-1.26,2.36-2.26
		c1.58-1.01,3.77-1.59,6.6-1.76c4.98-0.5,9.75-2.51,14.31-6.03c4.56-3.52,8.29-7.75,11.2-12.69c2.9-4.94,4.36-9.67,4.36-14.2
		c0-4.69-1.87-8.83-5.6-12.44c-3.73-3.6-10.17-5.82-19.29-6.66c-1.33-0.17-2.7-0.29-4.11-0.38c-1.41-0.08-2.86-0.13-4.36-0.13
		c-9.96,0-20,1.42-30.11,4.27c-10.12,2.85-19.41,6.87-27.87,12.06c-8.46,5.19-15.27,11.14-20.41,17.84
		c-5.14,6.7-7.71,13.99-7.71,21.86c0,5.53,1.37,9.97,4.11,13.32c2.74,3.35,6.22,5.95,10.45,7.79c4.23,1.85,8.67,3.35,13.32,4.52
		c4.64,1.17,9,2.26,13.07,3.27c4.06,1,7.26,2.26,9.58,3.77c2.32,1.51,3.15,3.69,2.49,6.53c-0.66,1.85-2.16,3.06-4.48,3.64
		c-2.33,0.59-5.39,0.88-9.21,0.88c-2.66,0-5.6-0.04-8.83-0.13c-3.24-0.08-6.68-0.13-10.33-0.13c-5.15,0-10.5,0.21-16.05,0.63
		c-5.56,0.42-11.24,1.47-17.05,3.14c-8.8,2.51-16.55,6.74-23.27,12.69c-6.72,5.95-11.95,12.73-15.68,20.35
		c-3.73,7.62-5.6,15.37-5.6,23.24c0,7.54,1.99,14.57,5.97,21.1c3.98,6.53,10.29,11.81,18.92,15.83c8.62,4.02,19.99,6.03,34.1,6.03
		c12.94,0,25.47-1.68,37.58-5.03c12.11-3.35,23.31-7.66,33.6-12.94c10.29-5.28,19.08-10.76,26.38-16.46
		c5.97-4.86,10.83-9.8,14.56-14.82c3.73-5.03,5.6-9.38,5.6-13.07c0-4.02-2.24-6.53-6.72-7.54c-3.65-1.01-5.48-2.01-5.48-3.02
		s1.33-1.51,3.98-1.51c1,0,2.07,0.09,3.24,0.25c1.16,0.17,2.32,0.59,3.48,1.26c7.47,3.69,11.2,8.88,11.2,15.58
		c0,9.55-6.72,19.6-20.16,30.15c-8.13,6.53-18.04,12.27-29.74,17.21c-11.7,4.94-24.31,8.79-37.83,11.56
		C119.08,263.22,105.52,264.61,91.92,264.61z"/>
	<path class="st2" d="M282.31,251.29c-1.83,0.16-3.9-0.25-6.22-1.26c-2.33-1-4.36-2.85-6.1-5.53c-1.74-2.68-2.61-6.45-2.61-11.31
		c0-4.02,0.75-8.88,2.24-14.57c-1.99,3.18-4.57,7.08-7.72,11.68c-3.15,4.61-6.56,8.67-10.2,12.19c-3.15,3.02-6.14,5.19-8.96,6.53
		c-2.82,1.34-5.39,2.01-7.72,2.01c-4.32,0-7.8-1.97-10.45-5.9c-2.66-3.93-3.98-9.08-3.98-15.45c0-6.7,1.66-14.32,4.98-22.86
		c3.32-8.54,8.71-17.42,16.18-26.63c4.81-5.86,10.66-10.59,17.55-14.2c6.88-3.6,13.65-5.4,20.28-5.4c3.81,0,7.47,0.63,10.95,1.88
		c3.48,1.26,6.55,3.31,9.21,6.16c1.16,1.17,1.74,2.51,1.74,4.02c0,1-0.42,1.85-1.24,2.51c-0.83,0.67-1.91,0.84-3.24,0.5
		c-1.83-5.86-5.72-8.79-11.7-8.79c-2.82,0-6.06,0.92-9.71,2.76c-5.64,3.02-11.49,7.96-17.55,14.82
		c-6.06,6.87-11.32,13.99-15.8,21.36c-0.67,1-1.7,2.93-3.11,5.78c-1.41,2.85-2.78,6.03-4.11,9.55c-1.33,3.52-2.24,6.95-2.74,10.3
		c-0.17,1.01-0.25,1.72-0.25,2.14c0,0.42,0,1.05,0,1.88c0,5.53,2.07,8.29,6.22,8.29c4.98,0,10.62-3.68,16.92-11.06
		c4.31-5.36,8.21-10.97,11.7-16.83c3.48-5.86,7.05-12.14,10.7-18.84c2.49-4.52,4.81-8.29,6.97-11.31c2.15-3.01,5.23-4.52,9.21-4.52
		c1.82,0,3.65,0.25,5.48,0.75c1.82,0.5,3.73,0.59,5.72,0.25c-1.33,1.34-3.11,3.86-5.35,7.54c-2.24,3.69-4.6,7.88-7.09,12.56
		c-2.49,4.69-4.73,9.47-6.72,14.32c-1.99,4.86-3.4,9.04-4.23,12.56c-0.17,1.01-0.37,2.43-0.62,4.27c-0.25,1.85-0.37,3.18-0.37,4.02
		c0,4.69,1.33,7.04,3.98,7.04c2.65,0,5.51-1.59,8.59-4.77c3.07-3.18,6.1-7.12,9.08-11.81c2.99-4.69,5.72-9.42,8.21-14.2
		s4.48-8.67,5.97-11.68c0.66-1.67,1.66-2.51,2.99-2.51c0.83,0,1.24,0.59,1.24,1.76c0,0.5-0.25,1.43-0.75,2.76
		c-1.99,4.19-4.4,8.92-7.22,14.2c-2.82,5.28-5.89,10.39-9.21,15.33c-3.32,4.94-6.76,9.04-10.33,12.31
		C289.56,249.16,285.96,250.95,282.31,251.29z"/>
	<path class="st2" d="M328.35,250.54c-4.65,0-8.8-1.63-12.44-4.9c-3.65-3.27-5.48-8.42-5.48-15.45c0-5.53,1.03-12.35,3.11-20.48
		c2.07-8.12,4.64-16.58,7.72-25.38c3.07-8.79,6.1-16.79,9.08-23.99h-13.19c-1.16,0-1.74-0.84-1.74-2.51c0-0.84,0.21-1.59,0.62-2.26
		c0.41-0.67,1.03-1,1.87-1h14.93c2.82-6.36,5.81-12.56,8.96-18.59c3.15-6.03,6.22-11.72,9.21-17.08c3.81-6.7,7.88-11.72,12.2-15.07
		c4.31-3.35,8.05-5.03,11.2-5.03c2.49,0,4.56,0.97,6.22,2.89c1.66,1.93,2.49,4.82,2.49,8.67c0,2.35-0.5,5.57-1.49,9.67
		c-1,4.11-2.57,8.42-4.73,12.94c-1.16,2.35-2.78,5.7-4.85,10.05c-2.08,4.36-4.11,8.21-6.1,11.56h11.95c1.16,0,1.74,0.84,1.74,2.51
		c0,0.67-0.17,1.38-0.5,2.14c-0.33,0.75-0.83,1.13-1.49,1.13h-14.68c-4.15,7.2-8.88,14.24-14.19,21.1
		c-5.31,6.87-11.62,13.74-18.91,20.6c-0.5,1.51-1.12,3.69-1.87,6.53c-0.75,2.85-1.41,5.74-1.99,8.67
		c-0.58,2.93-1.29,6.41-2.12,10.43c-0.5,2.18-0.75,4.19-0.75,6.03c0,3.52,0.83,6.07,2.49,7.66c1.66,1.59,3.57,2.39,5.72,2.39
		c1.33,0,2.65-0.21,3.98-0.63c1.33-0.42,2.82-1.21,4.48-2.39c5.81-4.19,10.91-9.88,15.31-17.08c4.39-7.2,8.25-14.15,11.57-20.85
		c1-2.01,1.99-3.01,2.99-3.01c0.66,0,1,0.5,1,1.51c0,0.5-0.25,1.43-0.75,2.76c-3.65,7.71-6.72,13.91-9.21,18.59
		c-2.49,4.69-4.9,8.59-7.22,11.68c-2.33,3.1-5.06,6.16-8.21,9.17c-2.33,2.35-4.98,4.11-7.96,5.28
		C334.32,249.95,331.33,250.54,328.35,250.54z M331.83,194.01c4.81-5.02,9.33-10.38,13.56-16.08c4.23-5.69,8.17-11.56,11.82-17.59
		h-11.7c-2.66,6.2-5.14,12.23-7.47,18.09C335.73,184.29,333.66,189.48,331.83,194.01z M348.01,154.56h12.69
		c2.32-4.35,4.52-8.62,6.6-12.81c2.07-4.18,3.94-8.37,5.6-12.56c1.16-2.68,2.15-5.69,2.99-9.04c0.83-3.35,1.24-5.94,1.24-7.79
		c0-2.51-0.58-3.77-1.74-3.77c-0.83,0-2.03,0.71-3.61,2.14c-1.58,1.42-3.53,3.81-5.85,7.16c-2.99,4.19-5.93,9.59-8.83,16.21
		C354.19,140.7,351.16,147.52,348.01,154.56z"/>
	<path class="st2" d="M509.53,351.04c-11.62,0-21.03-2.18-28.25-6.53c-7.22-4.36-10.83-9.63-10.83-15.83
		c0-4.52,2.36-9.46,7.09-14.82c4.73-5.36,12.4-10.22,23.02-14.57c16.26-6.87,33.51-11.27,51.77-13.19
		c18.25-1.93,37.08-2.89,56.5-2.89c6.47-16.25,12.61-32.41,18.42-48.49c5.81-16.08,10.95-32.49,15.43-49.25
		c-2.99,6.87-6.97,14.66-11.95,23.37c-4.98,8.71-10.7,17.13-17.17,25.25c-6.47,8.13-13.61,14.87-21.4,20.23
		c-9.62,6.53-19.58,9.8-29.87,9.8c-7.63,0-14.19-2.26-19.66-6.78c-5.48-4.52-8.21-11.64-8.21-21.36c0-1,0.04-2.09,0.12-3.27
		c0.08-1.17,0.21-2.34,0.37-3.52c1.33-8.37,4.02-17.42,8.09-27.13c4.06-9.71,8.71-19.3,13.94-28.77
		c5.23-9.46,10.08-17.96,14.56-25.5c5.31-8.71,9.96-17.59,13.94-26.63c3.98-9.04,7.05-17.75,9.21-26.13
		c2.15-8.37,3.24-15.74,3.24-22.11c0-4.86-0.71-9.17-2.12-12.94c-1.41-3.77-3.69-6.66-6.84-8.67c-7.3-4.69-15.93-7.03-25.88-7.03
		c-10.62,0-21.82,2.43-33.6,7.29c-11.78,4.86-23.27,11.43-34.47,19.72c-11.2,8.29-21.2,17.71-29.99,28.27
		c-8.8,10.55-15.6,21.52-20.41,32.91c-2.99,7.2-5.19,13.91-6.6,20.1c-1.41,6.2-2.12,11.9-2.12,17.08c0,9.05,1.74,16.54,5.23,22.49
		c3.48,5.95,8.05,10.43,13.69,13.44c5.64,3.01,11.7,4.52,18.17,4.52c5.31,0,10.62-0.92,15.93-2.76c5.81-2.01,11.24-5.36,16.3-10.05
		c5.06-4.69,9.54-9.96,13.44-15.83c3.9-5.86,6.93-11.81,9.08-17.84c2.15-6.03,3.24-11.47,3.24-16.33c0-4.86-1.21-8.83-3.61-11.93
		c-2.41-3.1-6.35-4.65-11.82-4.65c-1.99,0-4.15,0.25-6.47,0.75c-0.67,0.17-1.24,0.25-1.74,0.25c-0.5,0-0.91,0-1.24,0
		c-1.49,0-2.24-0.33-2.24-1c0-0.33,0.5-0.88,1.49-1.63c1-0.75,2.07-1.21,3.24-1.38c4.81-1.17,8.87-1.76,12.19-1.76
		c6.8,0,11.78,1.93,14.93,5.78c3.15,3.85,4.73,8.79,4.73,14.82c0,7.04-2.12,14.87-6.35,23.49c-4.23,8.63-10.25,16.83-18.04,24.62
		c-7.8,7.79-17.17,13.94-28.12,18.47c-5.97,2.51-12.11,3.77-18.42,3.77c-8.3,0-16.05-2.14-23.27-6.41
		c-7.22-4.27-13.07-10.34-17.55-18.22c-4.48-7.87-6.72-17.17-6.72-27.89c0-6.53,0.83-12.94,2.49-19.22
		c1.66-6.28,4.06-12.77,7.22-19.47c6.14-12.9,14.27-24.66,24.39-35.3c10.12-10.64,21.28-19.89,33.47-27.76
		c12.2-7.87,24.6-13.94,37.21-18.22c12.61-4.27,24.47-6.41,35.59-6.41c4.81,0,9.37,0.38,13.69,1.13c4.31,0.75,8.29,2.05,11.95,3.89
		c8.79,3.85,15.01,9.26,18.67,16.21c3.65,6.95,5.48,14.7,5.48,23.24c0,9.55-1.91,19.72-5.72,30.53
		c-3.82,10.8-8.71,21.32-14.68,31.53c-5.64,9.55-11.16,19.52-16.55,29.9c-5.39,10.39-10.08,20.44-14.06,30.15
		c-3.98,9.72-6.81,18.43-8.46,26.13c-0.33,1.68-0.58,3.35-0.75,5.02c-0.17,1.68-0.25,3.18-0.25,4.52c0,5.87,1.41,10.14,4.23,12.81
		c2.82,2.68,6.39,4.02,10.7,4.02c6.97,0,14.35-2.76,22.15-8.29c6.14-4.35,12.07-10.13,17.79-17.34c5.72-7.2,11.08-15.11,16.05-23.74
		c4.98-8.62,9.46-17.34,13.44-26.13c3.98-8.79,7.38-17.04,10.2-24.75c2.82-7.7,4.98-14.15,6.47-19.35c0.33-1.51,1.57-3.27,3.73-5.28
		c2.15-2.01,4.23-3.02,6.22-3.02c1.33,0,2.45,0.67,3.36,2.01c0.91,1.34,1.37,3.69,1.37,7.03c0,3.35-0.75,8.46-2.24,15.33
		c-2.16,9.72-4.81,20.31-7.96,31.78c-3.15,11.48-6.68,23.12-10.58,34.92c-3.9,11.81-8.05,23.12-12.44,33.92
		c-4.4,10.8-8.84,20.39-13.32,28.77c12.28,0,23.68-0.42,34.22-1.26c10.53-0.84,18.13-2.6,22.77-5.28c5.48-3.18,9.58-5.9,12.32-8.17
		c2.74-2.26,4.11-5.82,4.11-10.68v-1.51c0-1.51,0.25-2.26,0.75-2.26c0.66,0,1.41,1.34,2.24,4.02c0.16,0.5,0.29,1.01,0.37,1.51
		c0.08,0.5,0.12,1.09,0.12,1.76c0,3.52-1.45,7.49-4.36,11.93c-2.9,4.44-7.76,8.08-14.56,10.93c-6.14,2.51-14.81,4.02-26.01,4.52
		s-23.19,0.84-35.96,1c-8.3,12.73-18.71,23.7-31.23,32.91c-12.53,9.21-25.18,16.25-37.95,21.1c-6.97,2.68-13.65,4.6-20.04,5.78
		C521.18,350.45,515.17,351.04,509.53,351.04z M511.27,344c4.81,0,10.04-0.5,15.68-1.51c5.64-1,11.2-2.51,16.68-4.52
		c11.28-4.19,22.44-10.26,33.47-18.22c11.03-7.96,20.37-18.05,28-30.28c-16.92,0-34.02,1.3-51.27,3.89
		c-17.26,2.59-33.35,8.25-48.28,16.96c-7.47,4.19-12.82,8.12-16.05,11.81c-3.24,3.68-4.85,6.95-4.85,9.8c0,3.68,2.53,6.61,7.59,8.79
		C497.29,342.91,503.64,344,511.27,344z"/>
	<path class="st2" d="M682.5,250.54c-6.31,0-10.95-2.14-13.94-6.41c-2.99-4.27-4.48-9.5-4.48-15.7c0-7.54,1.74-15.41,5.23-23.62
		c3.32-7.7,7.55-14.74,12.69-21.1c5.14-6.36,10.7-11.51,16.68-15.45c5.97-3.93,11.78-5.9,17.42-5.9c6.3,0,10.95,2.1,13.94,6.28
		c2.99,4.19,4.48,9.47,4.48,15.83c0,7.71-1.74,15.58-5.23,23.62c-1.99,4.52-4.81,9.51-8.46,14.95c-3.65,5.44-7.8,10.43-12.44,14.95
		c1,1.85,2.4,3.39,4.23,4.65c1.82,1.26,4.31,1.88,7.47,1.88c3.98,0,7.75-1.67,11.32-5.03c3.57-3.35,6.84-7.41,9.83-12.19
		c2.99-4.77,5.64-9.59,7.96-14.45c2.32-4.86,4.23-8.79,5.72-11.81c0.5-1.01,1.33-1.51,2.49-1.51c0.66,0,1.16,0.29,1.49,0.88
		c0.33,0.59,0.25,1.47-0.25,2.64c-0.99,2.51-2.66,6.24-4.98,11.18c-2.33,4.94-5.14,10.05-8.46,15.33
		c-3.32,5.28-7.13,9.76-11.45,13.44c-4.32,3.69-9.13,5.53-14.44,5.53c-3.65,0-6.8-0.63-9.46-1.88c-2.66-1.26-4.81-2.8-6.47-4.65
		c-3.48,2.68-6.97,4.77-10.45,6.28C689.47,249.78,685.99,250.54,682.5,250.54z M686.23,245.01c4.48,0,9.29-2.18,14.44-6.53
		c-1.33-2.01-2.33-4.1-2.99-6.28c-0.67-2.17-1-4.19-1-6.03c0-3.02,0.7-5.61,2.12-7.79c1.41-2.17,3.61-3.27,6.6-3.27
		c2.15,0,3.94,0.8,5.35,2.39c1.41,1.59,2.12,3.39,2.12,5.4c0,0.5-0.04,0.97-0.12,1.38c-0.09,0.42-0.21,0.88-0.37,1.38
		c2.82-3.85,5.47-8.37,7.96-13.57c5.47-11.89,8.21-21.69,8.21-29.4c0-3.85-0.75-6.87-2.24-9.05c-1.49-2.17-3.73-3.27-6.72-3.27
		c-3.48,0-7.26,1.51-11.32,4.52c-4.07,3.02-7.96,7.04-11.7,12.06c-3.73,5.02-7.01,10.64-9.83,16.83c-2.66,5.7-4.77,11.18-6.35,16.46
		c-1.58,5.28-2.36,9.84-2.36,13.69c0,3.35,0.66,6.03,1.99,8.04C681.34,244,683.41,245.01,686.23,245.01z"/>
	<path class="st2" d="M761.89,250.54c-1.83,0-4.02-0.42-6.59-1.26c-2.58-0.84-4.81-2.39-6.72-4.65c-1.91-2.26-2.86-5.65-2.86-10.18
		c0-4.35,1.03-8.58,3.11-12.69c2.07-4.1,4.02-8.08,5.85-11.93c-0.5,0-1.04-0.17-1.62-0.5c-0.58-0.33-0.87-0.84-0.87-1.51
		c0-0.67,0.16-1.34,0.5-2.01c0.66-1.34,1.41-2.76,2.24-4.27c0.83-1.51,1.58-3.1,2.24-4.77c2.49-5.19,4.98-10.18,7.47-14.95
		c2.49-4.77,4.64-9,6.47-12.69c1.82-3.68,4.98-5.53,9.46-5.53h15.43c-2.82,2.18-5.35,4.57-7.59,7.16c-2.24,2.6-5.02,7.33-8.34,14.2
		c-2.33,4.69-4.36,8.84-6.1,12.44c-1.74,3.6-3.48,7.25-5.23,10.93c-1.74,3.69-3.2,6.78-4.36,9.3c-2.16,4.69-3.57,8.42-4.23,11.18
		c-0.67,2.76-1,5.32-1,7.66c0,5.53,1.82,8.29,5.48,8.29c3.98,0,8.79-3.27,14.43-9.8c4.64-5.53,9.21-12.14,13.69-19.85
		c4.48-7.7,8.75-15.66,12.82-23.87c4.06-8.21,7.67-15.58,10.83-22.11c1.82-3.68,5.06-5.53,9.71-5.53h13.69
		c-2.49,2.01-4.57,3.89-6.22,5.65c-1.66,1.76-3.28,4.11-4.85,7.03c-1.58,2.93-3.69,7.08-6.35,12.44c-2.16,4.52-4.44,9.34-6.84,14.45
		c-2.41,5.11-4.52,9.92-6.35,14.45c-1.83,4.52-2.99,8.21-3.48,11.05c-0.17,1.68-0.33,2.93-0.5,3.77c-0.17,0.84-0.25,1.76-0.25,2.76
		c0,3.18,0.54,5.44,1.62,6.78c1.08,1.34,2.36,2.01,3.86,2.01c3.98,0,8-2.26,12.07-6.78c4.06-4.52,7.96-10.05,11.7-16.58
		c3.73-6.53,6.93-12.73,9.58-18.59c1-1.84,1.91-2.76,2.74-2.76c1,0,1.49,0.59,1.49,1.76c0,0.84-0.33,1.84-1,3.01
		c-1.83,4.02-4.07,8.63-6.72,13.82c-2.66,5.19-5.64,10.3-8.96,15.33c-3.32,5.03-6.97,9.17-10.95,12.44s-8.3,4.9-12.94,4.9
		c-4.15,0-7.55-1.55-10.2-4.65c-2.66-3.1-3.98-7.49-3.98-13.19c0-4.52,0.83-9.38,2.49-14.57c-2.82,5.02-6.06,10.05-9.71,15.07
		c-3.65,5.03-7.55,9.17-11.7,12.44C770.19,248.9,766.04,250.54,761.89,250.54z"/>
	<path class="st2" d="M872.89,250.79c-3.15,0-6.31-1.3-9.46-3.89c-3.15-2.6-4.73-6.82-4.73-12.69c0-4.52,1.08-9.71,3.24-15.58
		c1.99-5.69,4.69-11.22,8.09-16.58c3.4-5.36,5.85-9.71,7.34-13.06c0.5-1.34,0.75-2.51,0.75-3.52c0-3.02-1.87-5.19-5.6-6.53
		c-3.73-1.34-8.59-2.09-14.56-2.26l-2.99,8.29c-1.83,5.36-4.36,11.64-7.59,18.84c-3.24,7.2-6.81,14.16-10.7,20.85
		c-3.9,6.7-7.92,12.06-12.07,16.08c-0.33,0.34-0.75,0.5-1.25,0.5c-0.66,0-1.12-0.42-1.37-1.26c-0.25-0.84,0.12-1.84,1.12-3.01
		c6.47-8.71,12.28-18.38,17.42-29.02c5.14-10.63,9.5-21.48,13.07-32.54c3.57-11.05,6.18-21.27,7.84-30.65
		c0.5-2.68,1.41-4.65,2.74-5.9c1.33-1.26,2.74-1.88,4.23-1.88c2.15,0,4.15,1.05,5.97,3.14c1.82,2.1,2.74,5.07,2.74,8.92
		c0,0.67-0.04,1.43-0.12,2.26c-0.09,0.84-0.21,1.68-0.37,2.51c-0.67,3.52-2.61,6.83-5.85,9.92c-3.24,3.1-5.85,5.4-7.84,6.91
		c1.66,0.17,3.4,0.29,5.23,0.38c1.82,0.09,3.82,0.13,5.97,0.13c7.8,0,15.51-0.5,23.15-1.51c0.33,1.01,0.5,1.76,0.5,2.26
		c0,2.18-0.62,4.94-1.87,8.29c-1.25,3.35-2.53,6.37-3.86,9.04c-0.67,1.51-1.99,4.23-3.98,8.17c-1.99,3.94-4.15,8.38-6.47,13.32
		c-2.33,4.94-4.27,9.8-5.85,14.57c-1.58,4.77-2.36,8.84-2.36,12.19c0,4.36,1.66,6.53,4.98,6.53c2.49,0,5.23-1.63,8.21-4.9
		c2.99-3.27,5.93-7.29,8.84-12.06c2.9-4.77,5.56-9.46,7.96-14.07c2.4-4.6,4.27-8.25,5.6-10.93c0.66-1.67,1.58-2.51,2.74-2.51
		c0.66,0,1,0.59,1,1.76c0,0.67-0.25,1.68-0.75,3.02c-1.83,3.85-3.98,8.21-6.47,13.06c-2.49,4.86-5.27,9.63-8.34,14.32
		c-3.07,4.69-6.39,8.75-9.96,12.19c-3.57,3.44-7.43,5.65-11.57,6.66C875.13,250.7,874.22,250.79,872.89,250.79z"/>
	<path class="st2" d="M1054.07,283.45c-16.1,0-30.36-3.14-42.81-9.42c-12.44-6.28-22.19-14.91-29.24-25.88
		c-7.05-10.97-10.58-23.41-10.58-37.31c0-8.71,1.49-17.67,4.48-26.88c1.66-4.86,4.06-9.13,7.22-12.81c3.15-3.68,6.47-6.7,9.96-9.04
		c3.48-2.34,6.47-3.85,8.96-4.52c1.82-0.5,2.99-0.75,3.48-0.75c1.16,0,0.79,0.8-1.12,2.39c-1.91,1.59-4.27,3.31-7.09,5.15
		c-3.15,2.18-6.81,5.44-10.95,9.8c-4.15,4.36-6.97,10.8-8.46,19.35c-0.33,2.01-0.58,4.02-0.75,6.03c-0.17,2.01-0.25,3.94-0.25,5.78
		c0,10.89,2.45,20.48,7.34,28.77c4.89,8.29,11.24,15.2,19.04,20.73c7.8,5.53,16.3,9.71,25.51,12.56c9.21,2.85,18.04,4.27,26.51,4.27
		c13.44,0,25.88-2.64,37.33-7.91c11.45-5.28,21.94-12.52,31.48-21.73c9.54-9.21,18.12-19.81,25.76-31.78
		c7.63-11.97,14.35-24.66,20.16-38.06c-1.33,0-3.24-0.04-5.72-0.13c-2.49-0.08-5.23-0.13-8.21-0.13c-4.48,0-9.33,0.29-14.56,0.88
		c-5.23,0.59-10.12,1.85-14.68,3.77c-4.57,1.93-8.26,4.9-11.08,8.92c-1,1.17-1.91,1.76-2.74,1.76c-0.67,0-1.16-0.42-1.49-1.26
		c-0.33-0.84-0.25-1.76,0.25-2.76c3.98-8.88,9.46-14.91,16.43-18.09c6.97-3.18,14.77-4.77,23.39-4.77c3.65,0,7.34,0.21,11.08,0.63
		c3.73,0.42,7.42,0.97,11.08,1.63c2.99-7.2,6.3-14.4,9.96-21.61c3.65-7.2,7.22-13.9,10.7-20.1c3.48-6.19,6.63-11.43,9.46-15.7
		c2.82-4.27,4.81-7.07,5.97-8.42c-10.62-5.36-21.57-10.3-32.85-14.82c-11.29-4.52-23.06-7.62-35.34-9.3
		c-2.49-0.33-4.98-0.58-7.47-0.75c-2.49-0.16-4.9-0.25-7.22-0.25c-10.95,0-20.74,1.76-29.37,5.28c-8.63,3.52-15.93,8-21.9,13.44
		c-5.97,5.44-10.54,11.22-13.69,17.34c-3.15,6.12-4.73,11.85-4.73,17.21c0,7.03,2.49,12.06,7.47,15.07
		c2.99,1.85,6.01,3.18,9.08,4.02c3.07,0.84,6.01,1.26,8.84,1.26c6.3,0,12.03-1.34,17.17-4.02c5.14-2.68,9.25-5.65,12.32-8.92
		c3.07-3.27,4.6-5.74,4.6-7.41c0-1.67,0.5-3.14,1.49-4.4c1-1.26,1.82-1.88,2.49-1.88c0.66,0,1,0.59,1,1.76
		c0,0.84-0.25,2.01-0.75,3.52c-2.49,8.71-7.51,15.37-15.06,19.97c-7.55,4.61-15.47,6.91-23.77,6.91c-3.48,0-6.93-0.42-10.33-1.26
		c-3.4-0.84-6.59-2.09-9.58-3.77c-5.47-3.18-9.54-7.24-12.19-12.19c-2.66-4.94-3.98-10.26-3.98-15.95c0-6.53,1.66-13.27,4.98-20.23
		c3.32-6.95,8.09-13.32,14.31-19.09c6.22-5.78,13.73-10.47,22.52-14.07c8.79-3.6,18.75-5.4,29.87-5.4c8.46,0,17.92,1.43,28.37,4.27
		c13.77,3.69,26.46,8.25,38.08,13.69c11.61,5.45,21.24,10.6,28.87,15.45c1.16-1.34,3.07-3.1,5.72-5.28
		c2.65-2.17,6.05-3.27,10.2-3.27c1.49,0,3.24,0.25,5.23,0.75c1.49,0.5,2.61,1.34,3.36,2.51c0.75,1.17,1.12,2.35,1.12,3.52
		c0,1.51-0.5,2.26-1.49,2.26c-0.67,0-1.66-0.75-2.99-2.26c-1.16-0.5-2.41-0.75-3.73-0.75c-2.16,0-4.23,0.59-6.22,1.76
		c-1.99,1.17-3.73,2.43-5.23,3.77c2.99,1.51,6.93,3.27,11.82,5.28c4.89,2.01,10.33,4.02,16.3,6.03c5.97,2.01,11.99,3.64,18.04,4.9
		c6.05,1.26,11.65,1.88,16.8,1.88c4.31,0,8.21-0.58,11.7-1.76c3.48-1.17,5.97-3.35,7.47-6.53c1.33-3.18,2.57-4.77,3.73-4.77
		c0.83,0,1.25,0.92,1.25,2.76c0,0.5,0,1,0,1.51s-0.09,1-0.25,1.51c-0.67,4.52-3.4,8.33-8.21,11.43c-4.81,3.1-10.62,4.65-17.42,4.65
		c-1,0-2.03-0.04-3.11-0.13c-1.08-0.08-2.2-0.21-3.36-0.38c-9.62-1.67-18.58-4.1-26.88-7.29c-8.3-3.18-15.22-6.19-20.78-9.04
		c-5.56-2.85-9.17-4.6-10.83-5.28c-5.31,6.03-10.04,13.06-14.19,21.1c-4.15,8.04-7.76,16-10.83,23.87
		c-3.07,7.88-5.85,14.57-8.34,20.1c5.14,0.67,10.74,1.13,16.8,1.38c6.05,0.25,11.74,0.38,17.05,0.38c2.65,0,5.1-0.04,7.34-0.13
		c2.24-0.08,4.19-0.13,5.85-0.13h1.49c3.32,0,4.98,0.59,4.98,1.76c0,1.17-1.91,2.26-5.72,3.27c-2.49,0.67-6.68,1.17-12.57,1.51
		c-5.89,0.34-11.99,0.5-18.29,0.5c-3.82,0-7.47-0.08-10.95-0.25c-3.48-0.17-6.47-0.42-8.96-0.75c-3.48,9.55-7.47,19.43-11.95,29.65
		c-4.48,10.22-9.92,20.14-16.3,29.77c-6.39,9.63-14.02,18.34-22.9,26.13c-8.88,7.79-19.37,13.94-31.48,18.47
		C1084.27,281.19,1070.16,283.45,1054.07,283.45z"/>
	<path class="st2" d="M1252.68,251.54c-6.14,0-11.66-2.01-16.55-6.03c-4.9-4.02-7.34-10.13-7.34-18.34c0-7.54,1.82-15.62,5.48-24.25
		c3.65-8.62,8.29-16.21,13.94-22.74c4.81-5.69,10.2-10.38,16.18-14.07c5.97-3.68,11.61-5.53,16.92-5.53c3.65,0,6.8,1.01,9.46,3.02
		c2.82,2.18,4.23,5.28,4.23,9.3c0,4.19-1.58,8.79-4.73,13.82c-3.15,5.02-7.63,9.72-13.44,14.07c-2.49,1.85-5.64,3.6-9.46,5.28
		c-3.82,1.68-7.63,3.06-11.45,4.15c-3.82,1.09-6.97,1.63-9.46,1.63c-0.83,2.01-1.62,4.69-2.36,8.04c-0.75,3.35-1.12,6.78-1.12,10.3
		c0,4.19,0.83,7.96,2.49,11.31c1.66,3.35,4.73,5.02,9.21,5.02c5.48,0,10.45-1.59,14.93-4.77c4.48-3.18,8.46-7.16,11.95-11.93
		c3.48-4.77,6.43-9.59,8.83-14.45c2.4-4.86,4.36-8.96,5.85-12.31c1-2.34,2.32-3.52,3.98-3.52c0.83,0,1.24,0.42,1.24,1.26
		c0,0.67-0.25,1.51-0.75,2.51c-2.33,5.02-4.81,10.34-7.47,15.95c-2.66,5.61-5.81,10.89-9.46,15.83c-3.65,4.94-8.01,8.92-13.07,11.93
		C1265.66,250.03,1259.65,251.54,1252.68,251.54z M1248.2,207.32c2.32,0,6.22-0.88,11.7-2.64s10.45-4.56,14.93-8.42
		c4.31-3.85,7.63-8.08,9.96-12.69c2.32-4.6,3.48-8.5,3.48-11.68c0-3.68-1.33-5.53-3.98-5.53c-1.99,0-4.73,1.34-8.21,4.02
		c-3.48,2.68-7.8,7.2-12.94,13.57c-3.15,4.02-6.14,8.38-8.96,13.07C1251.35,201.71,1249.36,205.15,1248.2,207.32z"/>
	<path class="st2" d="M1314.4,251.54c-6.14,0-11.66-2.01-16.55-6.03c-4.9-4.02-7.34-10.13-7.34-18.34c0-7.54,1.82-15.62,5.48-24.25
		c3.65-8.62,8.29-16.21,13.94-22.74c4.81-5.69,10.2-10.38,16.18-14.07c5.97-3.68,11.61-5.53,16.92-5.53c3.65,0,6.8,1.01,9.46,3.02
		c2.82,2.18,4.23,5.28,4.23,9.3c0,4.19-1.58,8.79-4.73,13.82c-3.15,5.02-7.63,9.72-13.44,14.07c-2.49,1.85-5.64,3.6-9.46,5.28
		c-3.82,1.68-7.63,3.06-11.45,4.15c-3.82,1.09-6.97,1.63-9.46,1.63c-0.83,2.01-1.62,4.69-2.36,8.04c-0.75,3.35-1.12,6.78-1.12,10.3
		c0,4.19,0.83,7.96,2.49,11.31c1.66,3.35,4.73,5.02,9.21,5.02c5.48,0,10.45-1.59,14.93-4.77c4.48-3.18,8.46-7.16,11.95-11.93
		c3.48-4.77,6.43-9.59,8.83-14.45c2.4-4.86,4.36-8.96,5.85-12.31c1-2.34,2.32-3.52,3.98-3.52c0.83,0,1.24,0.42,1.24,1.26
		c0,0.67-0.25,1.51-0.75,2.51c-2.33,5.02-4.81,10.34-7.47,15.95c-2.66,5.61-5.81,10.89-9.46,15.83c-3.65,4.94-8.01,8.92-13.07,11.93
		C1327.38,250.03,1321.37,251.54,1314.4,251.54z M1309.92,207.32c2.32,0,6.22-0.88,11.7-2.64s10.45-4.56,14.93-8.42
		c4.31-3.85,7.63-8.08,9.96-12.69c2.32-4.6,3.48-8.5,3.48-11.68c0-3.68-1.33-5.53-3.98-5.53c-1.99,0-4.73,1.34-8.21,4.02
		c-3.48,2.68-7.8,7.2-12.94,13.57c-3.15,4.02-6.14,8.38-8.96,13.07C1313.07,201.71,1311.08,205.15,1309.92,207.32z"/>
	<path class="st2" d="M1370.89,251.29c-6.97,0-11.7-1.88-14.19-5.65c-2.49-3.77-3.73-8.25-3.73-13.44c0-5.36,0.75-10.89,2.24-16.58
		c1.49-5.69,2.82-10.47,3.98-14.32c2.65-9.38,6.01-19.39,10.08-30.02c4.06-10.63,8.54-21.1,13.44-31.41
		c4.89-10.3,9.75-19.55,14.56-27.76c3.82-6.53,7.92-11.43,12.32-14.7c4.39-3.27,8.25-4.9,11.57-4.9c2.65,0,4.77,0.97,6.35,2.89
		c1.58,1.93,2.36,4.82,2.36,8.67c0,2.68-0.46,5.87-1.37,9.55c-0.91,3.69-2.45,7.88-4.6,12.56c-5.81,13.07-12.74,26.13-20.78,39.2
		c-8.05,13.06-18.21,25.29-30.49,36.68c-0.67,2.18-1.54,4.73-2.61,7.66c-1.08,2.93-2.03,5.9-2.86,8.92c-1,4.52-1.49,8.38-1.49,11.56
		c0,5.19,1.03,9.09,3.11,11.68c2.07,2.6,4.6,3.89,7.59,3.89c2.65,0,5.48-0.96,8.46-2.89c2.99-1.92,5.81-4.73,8.46-8.42
		c3.98-5.86,7.59-11.85,10.83-17.96c3.24-6.11,5.68-10.84,7.34-14.2c1-1.84,2.07-2.76,3.24-2.76c0.83,0,1.24,0.5,1.24,1.51
		c0,0.84-0.25,1.76-0.75,2.76c-1.49,3.35-3.45,7.66-5.85,12.94c-2.41,5.28-5.39,10.55-8.96,15.83c-3.57,5.28-7.8,9.72-12.69,13.32
		C1382.79,249.49,1377.19,251.29,1370.89,251.29z M1374.62,194.01c5.97-6.19,11.78-13.36,17.42-21.48
		c5.64-8.12,10.91-16.58,15.8-25.38c4.89-8.79,9-17.12,12.32-25c1.16-2.51,2.12-5.28,2.86-8.29c0.75-3.02,1.12-5.53,1.12-7.54
		c0-2.34-0.58-3.52-1.74-3.52c-0.67,0-1.66,0.63-2.99,1.88c-1.33,1.26-3.07,3.39-5.23,6.41c-3.15,4.19-6.59,9.89-10.33,17.08
		c-3.73,7.2-7.51,14.91-11.32,23.12c-3.82,8.21-7.3,16.12-10.45,23.74C1378.94,182.66,1376.45,188.98,1374.62,194.01z"/>
	<path class="st2" d="M1419.17,250.54c-6.14,0-10.45-1.8-12.94-5.4c-2.49-3.6-3.73-7.75-3.73-12.44c0-2.51,0.29-5.06,0.87-7.66
		c0.58-2.59,1.28-4.98,2.12-7.16l16.68-42.96c0.5-1.34,0.75-2.51,0.75-3.52c0-1.67-0.42-3.14-1.24-4.4
		c-0.83-1.26-1.41-2.14-1.74-2.64l13.69-0.5c2.49-0.17,4.27,0.13,5.35,0.88c1.08,0.75,1.62,1.63,1.62,2.64
		c0,1.01-0.58,2.85-1.74,5.53l-20.66,48.99c-1.83,4.19-2.82,6.62-2.99,7.29c-0.5,2.51-0.83,4.11-1,4.77
		c-0.17,0.67-0.25,1.09-0.25,1.26c0,0.17,0,0.84,0,2.01c0,2.18,0.54,4.02,1.62,5.53c1.08,1.51,2.94,2.26,5.6,2.26
		c1.66,0,3.57-0.5,5.72-1.51c2.15-1,3.73-2.01,4.73-3.01c4.15-4.35,8.25-10.09,12.32-17.21c4.06-7.12,7.84-14.2,11.32-21.23
		c0.66-1.67,1.49-2.51,2.49-2.51c0.83,0,1.24,0.59,1.24,1.76c0,0.67-0.25,1.68-0.75,3.02c-1.66,3.52-3.73,7.88-6.22,13.06
		c-2.49,5.19-5.44,10.34-8.83,15.45c-3.4,5.11-7.09,9.34-11.08,12.69C1428.13,248.86,1423.81,250.54,1419.17,250.54z
		 M1439.33,148.53c-2.49,0-4.52-0.88-6.1-2.64c-1.58-1.76-2.37-3.89-2.37-6.41c0-3.18,1.25-5.94,3.73-8.29
		c2.49-2.34,5.23-3.52,8.21-3.52c2.65,0,4.81,0.84,6.47,2.51c1.66,1.68,2.49,3.69,2.49,6.03c0,3.18-1.24,6.03-3.73,8.54
		C1445.55,147.27,1442.65,148.53,1439.33,148.53z"/>
	<path class="st2" d="M1431.61,252.55c5.97-12.22,11.74-24.33,17.3-36.31c5.56-11.97,11.24-23.41,17.05-34.3
		c3.32-6.03,6.1-10.26,8.34-12.69c2.24-2.43,5.27-3.64,9.08-3.64c1.33,0,2.74,0.21,4.23,0.63c1.49,0.42,2.99,0.63,4.48,0.63
		c1,0,1.74-0.08,2.24-0.25c-2.33,1.34-5.31,4.65-8.96,9.92c-3.65,5.28-7.38,11.35-11.2,18.22c-3.82,6.87-7.22,13.32-10.2,19.35
		c3.15-3.85,6.43-7.7,9.83-11.56c3.4-3.85,7.17-7.54,11.32-11.06c3.98-3.52,8.75-7.16,14.31-10.93c5.56-3.77,10.99-6.91,16.3-9.42
		c5.31-2.51,9.54-3.77,12.69-3.77c1.16,0,1.99,0.09,2.49,0.25c-3.65,6.53-6.84,12.44-9.58,17.71c-2.74,5.28-5.52,10.89-8.34,16.83
		c-2.82,5.95-5.35,11.64-7.59,17.08c-2.24,5.45-3.69,10.01-4.36,13.69c-0.5,2.18-0.75,4.19-0.75,6.03c0,2.68,0.5,4.44,1.49,5.28
		c1,0.84,2.07,1.26,3.24,1.26c3.15,0,6.47-1.72,9.96-5.15c3.48-3.43,6.84-7.66,10.08-12.69c3.24-5.02,6.14-9.92,8.71-14.7
		c2.57-4.77,4.44-8.42,5.6-10.93c0.66-1.34,1.16-2.14,1.49-2.39c0.33-0.25,0.83-0.38,1.49-0.38c1,0,1.49,0.67,1.49,2.01
		c0,0.84-0.25,1.76-0.75,2.76c-1.99,3.86-4.36,8.46-7.09,13.82c-2.74,5.36-5.85,10.6-9.33,15.7c-3.48,5.11-7.3,9.38-11.45,12.81
		c-4.15,3.44-8.63,5.15-13.44,5.15c-3.32,0-6.76-1.17-10.33-3.52c-3.57-2.34-5.35-6.7-5.35-13.06c0-1.84,0.16-3.81,0.5-5.9
		c0.33-2.09,0.91-4.4,1.74-6.91c1.33-3.35,2.9-6.95,4.73-10.8c1.82-3.85,4.81-9.13,8.96-15.83c1.16-1.84,1.87-3.27,2.12-4.27
		c0.25-1.01,0.37-1.84,0.37-2.51c0-2.01-0.91-3.02-2.74-3.02c-1.49,0-3.69,0.84-6.6,2.51c-2.91,1.68-6.51,4.61-10.83,8.79
		c-4.15,4.02-9.08,9.72-14.81,17.08c-5.72,7.37-12.32,18.26-19.79,32.66c-1.16,2.18-2.45,3.35-3.86,3.52
		c-1.41,0.17-3.36,0.33-5.85,0.5c-1.66,0.16-3.24,0.29-4.73,0.38C1433.85,251.25,1432.61,251.71,1431.61,252.55z"/>
	<path class="st2" d="M1521.96,330.69c-15.76,0-23.64-6.53-23.64-19.6c0-6.2,2.16-11.73,6.47-16.58c4.32-4.86,9.46-9.04,15.43-12.56
		c8.29-5.02,16.34-9.04,24.14-12.06c7.8-3.02,15.22-5.65,22.27-7.91c7.05-2.26,13.73-4.73,20.04-7.41
		c2.99-8.88,4.98-18.17,5.97-27.89c0.5-5.02,0.75-9.38,0.75-13.06c0-3.85-0.25-6.36-0.75-7.54c-1.83,3.52-4.23,7.79-7.22,12.81
		c-2.99,5.03-6.39,9.92-10.2,14.7c-3.82,4.77-7.93,8.75-12.32,11.93c-4.4,3.18-8.92,4.77-13.56,4.77c-1.66,0-3.24-0.25-4.73-0.75
		c-4.65-2.01-8.01-4.86-10.08-8.54c-2.08-3.68-3.11-7.87-3.11-12.56c0-7.54,2.15-15.66,6.47-24.37c4.31-8.71,9.46-16.67,15.43-23.87
		c4.81-5.86,10.45-10.55,16.92-14.07c6.47-3.52,13.02-5.28,19.66-5.28c7.63,0,14.77,2.6,21.4,7.79c2.49,2.01,3.73,4.19,3.73,6.53
		c0,2.51-1,3.77-2.99,3.77c-1.66,0-2.82-1.09-3.48-3.27c-2.33-6.19-6.06-9.3-11.2-9.3c-4.15,0-8.88,1.8-14.19,5.4
		c-5.31,3.6-10.29,8.08-14.93,13.44c-3.98,4.52-7.84,9.72-11.57,15.58c-3.73,5.87-6.81,11.64-9.21,17.34
		c-2.41,5.7-3.61,10.64-3.61,14.82c0,2.85,0.66,5.28,1.99,7.29c1.33,2.01,3.4,3.02,6.22,3.02c3.82,0,7.84-1.84,12.07-5.53
		c4.23-3.68,8.29-8.2,12.19-13.57c3.9-5.36,7.3-10.8,10.2-16.33c2.9-5.53,4.94-10.13,6.1-13.82c1.16-3.85,2.74-6.24,4.73-7.16
		c1.99-0.92,3.98-1.38,5.97-1.38s3.65-0.5,4.98-1.51c0.66,3.69,1.12,7.41,1.37,11.18c0.25,3.77,0.37,7.58,0.37,11.43
		c0,12.9-1.66,25.88-4.98,38.94c2.99-2.34,6.1-4.9,9.33-7.66s6.01-5.74,8.34-8.92c4.15-5.69,7.26-10.93,9.33-15.7
		c2.07-4.77,3.69-8.5,4.85-11.18c1-1.67,2.07-2.51,3.24-2.51c1,0,1.49,0.5,1.49,1.51c0,0.84-0.33,1.84-1,3.01
		c-4.15,8.88-7.96,16.46-11.45,22.74s-7.3,11.56-11.45,15.83c-4.15,4.27-9.29,7.91-15.43,10.93c-2.66,8.04-6.64,16.5-11.95,25.38
		c-5.31,8.88-11.53,17.25-18.67,25.12c-7.14,7.87-14.93,14.28-23.4,19.22C1539.88,328.21,1531.08,330.69,1521.96,330.69z
		 M1515.98,325.66c3.65,0,7.51-0.8,11.57-2.39c4.06-1.59,7.92-3.48,11.57-5.65c3.65-2.18,6.47-4.02,8.46-5.53
		c3.81-3.01,7.71-6.78,11.7-11.31s7.47-8.88,10.45-13.06c2.82-4.02,5.51-8.25,8.09-12.69c2.57-4.44,4.77-8.84,6.59-13.19
		c-1.33,0.5-2.95,1.09-4.85,1.76c-1.91,0.67-3.28,1.17-4.11,1.51c-5.47,1.84-11.49,3.98-18.04,6.41
		c-6.56,2.43-13.07,5.11-19.54,8.04c-6.47,2.93-12.36,6.16-17.67,9.67c-4.64,3.18-8.5,7.37-11.57,12.56
		c-3.07,5.19-4.6,9.71-4.6,13.57c0,2.85,0.96,5.28,2.86,7.29C1508.81,324.66,1511.84,325.66,1515.98,325.66z"/>
	<path class="st2" d="M1642.66,251.54c-8.13,0-13.9-2.14-17.3-6.41c-3.4-4.27-5.1-8.75-5.1-13.44c0-3.85,0.96-7.37,2.86-10.55
		c1.91-3.18,4.19-4.86,6.84-5.02c3.32-6.53,6.93-13.65,10.83-21.36c3.9-7.7,7.51-15.16,10.83-22.36c2.32-4.86,5.27-9.55,8.84-14.07
		c3.57-4.52,7.5-7.12,11.82-7.79h2.49c1.33,0,2.53,0.09,3.61,0.25c1.08,0.17,2.2,0.5,3.36,1.01c1.82,0.84,2.74,2.1,2.74,3.77
		c0,1-0.58,1.51-1.74,1.51c-0.5,0-1.16-0.25-1.99-0.75c-1.99-0.84-3.73-1.26-5.23-1.26c-1,0-1.91,0.25-2.74,0.75
		c-3.15,1.68-5.35,4.02-6.6,7.03c-1.24,3.02-1.87,6.2-1.87,9.55c0,2.68,0.29,5.4,0.87,8.17c0.58,2.76,1.28,5.24,2.12,7.41
		c1.82,4.69,3.77,9.3,5.85,13.82c2.07,4.52,3.11,9.38,3.11,14.57c0,5.02-1.66,10.34-4.98,15.95c-3.32,5.61-7.55,10.09-12.69,13.44
		l1.74,0.25c0.83,0.17,1.41,0.25,1.74,0.25c0.33,0,0.58,0,0.75,0c3.81,0,7.42-1.13,10.83-3.39c3.4-2.26,6.43-5.06,9.08-8.42
		c2.65-3.35,5.68-8.04,9.08-14.07c3.4-6.03,6.68-12.39,9.83-19.1c0.5-0.84,1.08-1.26,1.74-1.26c0.83,0,1.45,0.29,1.87,0.88
		c0.41,0.59,0.46,1.3,0.12,2.14c-2.16,4.69-4.6,9.76-7.34,15.2c-2.74,5.44-5.85,10.64-9.33,15.58c-3.48,4.94-7.51,8.96-12.07,12.06
		c-4.57,3.1-9.67,4.65-15.31,4.65c-1.33,0-2.74-0.08-4.23-0.25c-1.49-0.16-2.99-0.5-4.48-1c-1.66,0.67-3.36,1.22-5.1,1.63
		S1644.16,251.54,1642.66,251.54z M1640.67,247.52c1,0,1.91-0.13,2.74-0.38c0.83-0.25,1.58-0.46,2.24-0.63
		c-2.49-1.84-4.69-4.31-6.6-7.41c-1.91-3.1-3.03-7.07-3.36-11.93c-2.99,3.18-4.48,6.62-4.48,10.3c0,2.68,0.83,5.02,2.49,7.04
		C1635.36,246.52,1637.69,247.52,1640.67,247.52z M1650.13,244c2.82-2.34,5.35-5.78,7.59-10.3c2.24-4.52,3.36-10.47,3.36-17.84
		c0-6.53-0.67-13.48-1.99-20.85c-1.33-7.37-1.99-13.9-1.99-19.6c0-1.17,0.04-2.22,0.12-3.14c0.08-0.92,0.21-1.8,0.37-2.64
		c-2.16,4.52-4.65,9.76-7.47,15.7c-2.82,5.95-5.64,11.68-8.46,17.21c-2.82,5.53-5.23,10.22-7.22,14.07c1.82,0.17,3.15,0.8,3.98,1.88
		c0.83,1.09,1.16,3.23,1,6.41c-0.17,4.19,0.79,8.08,2.86,11.68C1644.36,240.2,1646.98,242.67,1650.13,244z"/>
</g>
</svg>
